<svg xmlns="http://www.w3.org/2000/svg" xmlns:xlink="http://www.w3.org/1999/xlink" width="700" zoomAndPan="magnify" viewBox="0 0 525 525.000007" height="700" preserveAspectRatio="xMidYMid meet" version="1.0"><defs><g/><clipPath id="id1"><path d="M 75.355469 74.859375 L 450.152344 74.859375 L 450.152344 449.652344 L 75.355469 449.652344 Z M 75.355469 74.859375 " clip-rule="nonzero"/></clipPath><clipPath id="id2"><path d="M 81.984375 81.585938 L 443.394531 81.585938 L 443.394531 442.996094 L 81.984375 442.996094 Z M 81.984375 81.585938 " clip-rule="nonzero"/></clipPath></defs><g clip-path="url(#id1)"><path fill="#638489" d="M 262.753906 74.859375 C 159.257812 74.859375 75.355469 158.757812 75.355469 262.253906 C 75.355469 365.753906 159.257812 449.652344 262.753906 449.652344 C 366.25 449.652344 450.152344 365.753906 450.152344 262.253906 C 450.152344 158.757812 366.25 74.859375 262.753906 74.859375 " fill-opacity="1" fill-rule="nonzero"/></g><g clip-path="url(#id2)"><path fill="#86cbcb" d="M 262.691406 81.59375 C 162.890625 81.59375 81.984375 162.496094 81.984375 262.292969 C 81.984375 362.089844 162.890625 442.992188 262.691406 442.992188 C 362.492188 442.992188 443.394531 362.089844 443.394531 262.292969 C 443.394531 162.496094 362.492188 81.59375 262.691406 81.59375 " fill-opacity="1" fill-rule="nonzero"/></g><g fill="#fffefe" fill-opacity="1"><g transform="translate(119.941495, 208.897178)"><g><path d="M -3.125 -14.3125 L -5.515625 -8.421875 L 2.15625 -5.3125 L 0.609375 -1.5 L -18.203125 -9.140625 L -13.96875 -19.5625 L -10.796875 -18.265625 L -13.484375 -11.65625 L -8.671875 -9.703125 L -6.28125 -15.59375 Z M -3.125 -14.3125 "/></g></g></g><g fill="#fffefe" fill-opacity="1"><g transform="translate(124.894978, 196.476677)"><g><path d="M -11.078125 -22.546875 L 1.359375 -16.03125 C 3.222656 -15.039062 4.382812 -13.78125 4.84375 -12.25 C 5.300781 -10.71875 5.035156 -9.003906 4.046875 -7.109375 C 3.035156 -5.179688 1.757812 -3.972656 0.21875 -3.484375 C -1.3125 -2.992188 -3.03125 -3.25 -4.9375 -4.25 L -17.28125 -10.71875 L -15.375 -14.375 L -3.015625 -7.890625 C -1.984375 -7.359375 -1.164062 -7.140625 -0.5625 -7.234375 C 0.0390625 -7.335938 0.566406 -7.816406 1.015625 -8.671875 C 1.472656 -9.535156 1.570312 -10.238281 1.3125 -10.78125 C 1.0625 -11.332031 0.4375 -11.875 -0.5625 -12.40625 L -12.984375 -18.921875 Z M -11.078125 -22.546875 "/></g></g></g><g fill="#fffefe" fill-opacity="1"><g transform="translate(132.277223, 182.296748)"><g><path d="M 8.84375 -13.125 L 6.546875 -9.71875 L -7.84375 -12.1875 L 3.203125 -4.75 L 0.90625 -1.34375 L -15.921875 -12.6875 L -13.625 -16.09375 L 0.765625 -13.625 L -10.28125 -21.078125 L -7.984375 -24.46875 Z M 8.84375 -13.125 "/></g></g></g><g fill="#fffefe" fill-opacity="1"><g transform="translate(141.880264, 168.080345)"><g><path d="M 1.046875 -1.234375 L -14.453125 -14.328125 L -10.984375 -18.4375 C -9.453125 -20.25 -7.65625 -21.207031 -5.59375 -21.3125 C -3.53125 -21.425781 -1.492188 -20.640625 0.515625 -18.953125 L 3.015625 -16.84375 C 5.054688 -15.113281 6.203125 -13.222656 6.453125 -11.171875 C 6.710938 -9.117188 6.046875 -7.148438 4.453125 -5.265625 Z M -9.1875 -15.265625 L 1.109375 -6.578125 L 1.890625 -7.515625 C 2.773438 -8.554688 3.117188 -9.519531 2.921875 -10.40625 C 2.734375 -11.300781 1.976562 -12.328125 0.65625 -13.484375 L -2.046875 -15.765625 C -3.492188 -16.984375 -4.675781 -17.628906 -5.59375 -17.703125 C -6.507812 -17.785156 -7.390625 -17.351562 -8.234375 -16.40625 Z M -9.1875 -15.265625 "/></g></g></g><g fill="#fffefe" fill-opacity="1"><g transform="translate(152.061488, 155.968777)"><g><path d="M 5.3125 -10.828125 L 1.28125 -6.96875 L 3.359375 -3.203125 L 0.21875 -0.21875 L -9.1875 -19.28125 L -6.484375 -21.859375 L 12.140625 -11.578125 L 8.984375 -8.5625 Z M -0.421875 -10.046875 L 2.3125 -12.65625 L -4.046875 -16.578125 Z M -0.421875 -10.046875 "/></g></g></g><g fill="#fffefe" fill-opacity="1"><g transform="translate(164.176489, 144.42154)"><g><path d="M 8.109375 -14.734375 C 9.429688 -12.835938 9.976562 -11.050781 9.75 -9.375 C 9.53125 -7.695312 8.550781 -6.191406 6.8125 -4.859375 C 4.988281 -3.460938 3.132812 -2.992188 1.25 -3.453125 C -0.632812 -3.910156 -2.429688 -5.253906 -4.140625 -7.484375 L -6.203125 -10.1875 C -7.898438 -12.40625 -8.707031 -14.492188 -8.625 -16.453125 C -8.539062 -18.421875 -7.601562 -20.09375 -5.8125 -21.46875 C -4.0625 -22.800781 -2.351562 -23.320312 -0.6875 -23.03125 C 0.96875 -22.75 2.566406 -21.742188 4.109375 -20.015625 L 0.828125 -17.5 C -0.0664062 -18.625 -0.835938 -19.273438 -1.484375 -19.453125 C -2.140625 -19.640625 -2.894531 -19.410156 -3.75 -18.765625 C -4.613281 -18.097656 -4.992188 -17.316406 -4.890625 -16.421875 C -4.796875 -15.535156 -4.226562 -14.382812 -3.1875 -12.96875 L -0.859375 -9.921875 C 0.367188 -8.316406 1.390625 -7.351562 2.203125 -7.03125 C 3.015625 -6.71875 3.859375 -6.894531 4.734375 -7.5625 C 5.585938 -8.21875 6.015625 -8.878906 6.015625 -9.546875 C 6.023438 -10.210938 5.640625 -11.109375 4.859375 -12.234375 Z M 8.109375 -14.734375 "/></g></g></g><g fill="#fffefe" fill-opacity="1"><g transform="translate(177.168072, 134.68896)"><g><path d="M 4.953125 -3.203125 L 1.515625 -0.984375 L -9.515625 -18.03125 L -6.078125 -20.25 Z M 4.953125 -3.203125 "/></g></g></g><g fill="#fffefe" fill-opacity="1"><g transform="translate(183.491518, 130.358785)"><g><path d="M 10.09375 -14.859375 C 11.382812 -12.453125 11.816406 -10.28125 11.390625 -8.34375 C 10.972656 -6.414062 9.753906 -4.910156 7.734375 -3.828125 C 5.734375 -2.753906 3.804688 -2.566406 1.953125 -3.265625 C 0.0976562 -3.972656 -1.472656 -5.503906 -2.765625 -7.859375 L -4.390625 -10.90625 C -5.710938 -13.363281 -6.171875 -15.585938 -5.765625 -17.578125 C -5.367188 -19.578125 -4.160156 -21.117188 -2.140625 -22.203125 C -0.148438 -23.265625 1.78125 -23.425781 3.65625 -22.6875 C 5.53125 -21.945312 7.128906 -20.351562 8.453125 -17.90625 Z M 4.875 -15.90625 C 4 -17.519531 3.125 -18.597656 2.25 -19.140625 C 1.375 -19.679688 0.453125 -19.691406 -0.515625 -19.171875 C -1.472656 -18.660156 -1.976562 -17.898438 -2.03125 -16.890625 C -2.082031 -15.878906 -1.707031 -14.601562 -0.90625 -13.0625 L 0.796875 -9.890625 C 1.640625 -8.316406 2.492188 -7.285156 3.359375 -6.796875 C 4.222656 -6.304688 5.140625 -6.320312 6.109375 -6.84375 C 7.054688 -7.34375 7.5625 -8.078125 7.625 -9.046875 C 7.695312 -10.023438 7.332031 -11.28125 6.53125 -12.8125 Z M 4.875 -15.90625 "/></g></g></g><g fill="#fffefe" fill-opacity="1"><g transform="translate(198.354683, 122.359516)"><g><path d="M 14.703125 -5.859375 L 10.890625 -4.34375 L 0.390625 -14.484375 L 5.328125 -2.125 L 1.515625 -0.609375 L -6 -19.453125 L -2.1875 -20.96875 L 8.328125 -10.8125 L 3.390625 -23.1875 L 7.1875 -24.703125 Z M 14.703125 -5.859375 "/></g></g></g><g fill="#fffefe" fill-opacity="1"><g transform="translate(214.620499, 116.099268)"><g/></g></g><g fill="#fffefe" fill-opacity="1"><g transform="translate(220.805326, 113.953306)"><g><path d="M 15.46875 -3.46875 L 11.5 -2.578125 L 9.59375 -11.046875 L 3.6875 -9.71875 L 5.59375 -1.25 L 1.578125 -0.359375 L -2.875 -20.15625 L 1.140625 -21.046875 L 2.953125 -13.03125 L 8.859375 -14.359375 L 7.046875 -22.375 L 11.015625 -23.265625 Z M 15.46875 -3.46875 "/></g></g></g><g fill="#fffefe" fill-opacity="1"><g transform="translate(237.659725, 110.244941)"><g><path d="M 11 -10.15625 L 4.65625 -9.390625 L 5.28125 -4.046875 L 12.78125 -4.9375 L 13.1875 -1.5625 L 1.609375 -0.1875 L -0.78125 -20.34375 L 10.765625 -21.71875 L 11.15625 -18.3125 L 3.6875 -17.421875 L 4.265625 -12.671875 L 10.609375 -13.4375 Z M 11 -10.15625 "/></g></g></g><g fill="#fffefe" fill-opacity="1"><g transform="translate(251.342658, 108.5489)"><g><path d="M 15.25 -7.0625 C 15.195312 -4.75 14.582031 -2.984375 13.40625 -1.765625 C 12.226562 -0.554688 10.546875 0.0664062 8.359375 0.109375 C 6.066406 0.160156 4.296875 -0.554688 3.046875 -2.046875 C 1.796875 -3.535156 1.140625 -5.679688 1.078125 -8.484375 L 1.015625 -11.890625 C 0.960938 -14.679688 1.550781 -16.84375 2.78125 -18.375 C 4.019531 -19.90625 5.765625 -20.695312 8.015625 -20.75 C 10.222656 -20.789062 11.910156 -20.203125 13.078125 -18.984375 C 14.253906 -17.765625 14.945312 -16.003906 15.15625 -13.703125 L 11.03125 -13.609375 C 10.96875 -15.046875 10.726562 -16.03125 10.3125 -16.5625 C 9.894531 -17.101562 9.148438 -17.363281 8.078125 -17.34375 C 6.984375 -17.320312 6.210938 -16.921875 5.765625 -16.140625 C 5.328125 -15.367188 5.113281 -14.101562 5.125 -12.34375 L 5.1875 -8.515625 C 5.226562 -6.492188 5.484375 -5.109375 5.953125 -4.359375 C 6.421875 -3.617188 7.203125 -3.265625 8.296875 -3.296875 C 9.378906 -3.316406 10.117188 -3.59375 10.515625 -4.125 C 10.910156 -4.65625 11.125 -5.609375 11.15625 -6.984375 Z M 15.25 -7.0625 "/></g></g></g><g fill="#fffefe" fill-opacity="1"><g transform="translate(267.296815, 108.181274)"><g><path d="M 15.796875 1.421875 L 11.734375 1.0625 L 12.515625 -7.59375 L 6.5 -8.140625 L 5.71875 0.515625 L 1.625 0.140625 L 3.453125 -20.078125 L 7.546875 -19.703125 L 6.796875 -11.515625 L 12.8125 -10.96875 L 13.5625 -19.15625 L 17.625 -18.796875 Z M 15.796875 1.421875 "/></g></g></g><g fill="#fffefe" fill-opacity="1"><g transform="translate(284.398373, 109.709767)"><g><path d="M 17.265625 -4.953125 C 16.710938 -2.273438 15.65625 -0.332031 14.09375 0.875 C 12.53125 2.09375 10.628906 2.472656 8.390625 2.015625 C 6.160156 1.554688 4.554688 0.460938 3.578125 -1.265625 C 2.609375 -2.992188 2.382812 -5.171875 2.90625 -7.796875 L 3.59375 -11.203125 C 4.15625 -13.929688 5.226562 -15.929688 6.8125 -17.203125 C 8.394531 -18.484375 10.3125 -18.890625 12.5625 -18.421875 C 14.769531 -17.972656 16.351562 -16.863281 17.3125 -15.09375 C 18.28125 -13.320312 18.5 -11.078125 17.96875 -8.359375 Z M 13.9375 -9.109375 C 14.300781 -10.898438 14.316406 -12.285156 13.984375 -13.265625 C 13.660156 -14.242188 12.957031 -14.84375 11.875 -15.0625 C 10.8125 -15.28125 9.9375 -15.019531 9.25 -14.28125 C 8.5625 -13.539062 8.035156 -12.316406 7.671875 -10.609375 L 6.9375 -7.078125 C 6.582031 -5.335938 6.578125 -4 6.921875 -3.0625 C 7.273438 -2.132812 7.992188 -1.5625 9.078125 -1.34375 C 10.128906 -1.125 10.992188 -1.363281 11.671875 -2.0625 C 12.347656 -2.769531 12.867188 -3.96875 13.234375 -5.65625 Z M 13.9375 -9.109375 "/></g></g></g><g fill="#fffefe" fill-opacity="1"><g transform="translate(300.981378, 113.143297)"><g><path d="M 11.34375 -1.984375 C 11.582031 -2.765625 11.566406 -3.414062 11.296875 -3.9375 C 11.023438 -4.46875 10.425781 -5.125 9.5 -5.90625 C 7.789062 -7.257812 6.664062 -8.5625 6.125 -9.8125 C 5.59375 -11.070312 5.546875 -12.378906 5.984375 -13.734375 C 6.492188 -15.359375 7.484375 -16.484375 8.953125 -17.109375 C 10.429688 -17.734375 12.0625 -17.757812 13.84375 -17.1875 C 15.03125 -16.8125 16.003906 -16.222656 16.765625 -15.421875 C 17.535156 -14.628906 18.023438 -13.691406 18.234375 -12.609375 C 18.453125 -11.535156 18.378906 -10.421875 18.015625 -9.265625 L 14.125 -10.515625 C 14.40625 -11.421875 14.425781 -12.171875 14.1875 -12.765625 C 13.957031 -13.359375 13.476562 -13.769531 12.75 -14 C 12.0625 -14.21875 11.460938 -14.1875 10.953125 -13.90625 C 10.453125 -13.632812 10.09375 -13.15625 9.875 -12.46875 C 9.707031 -11.9375 9.765625 -11.390625 10.046875 -10.828125 C 10.335938 -10.265625 10.953125 -9.578125 11.890625 -8.765625 C 13.566406 -7.484375 14.671875 -6.210938 15.203125 -4.953125 C 15.742188 -3.691406 15.769531 -2.296875 15.28125 -0.765625 C 14.75 0.921875 13.796875 2.066406 12.421875 2.671875 C 11.046875 3.285156 9.441406 3.300781 7.609375 2.71875 C 6.359375 2.3125 5.296875 1.6875 4.421875 0.84375 C 3.554688 0.0078125 2.984375 -0.972656 2.703125 -2.109375 C 2.429688 -3.253906 2.503906 -4.476562 2.921875 -5.78125 L 6.828125 -4.53125 C 6.472656 -3.414062 6.429688 -2.535156 6.703125 -1.890625 C 6.984375 -1.242188 7.617188 -0.765625 8.609375 -0.453125 C 9.960938 -0.0234375 10.875 -0.535156 11.34375 -1.984375 Z M 11.34375 -1.984375 "/></g></g></g><g fill="#fffefe" fill-opacity="1"><g transform="translate(315.632131, 117.980991)"><g/></g></g><g fill="#fffefe" fill-opacity="1"><g transform="translate(321.805685, 120.25731)"><g><path d="M 16.796875 0.703125 C 15.679688 2.742188 14.320312 4.035156 12.71875 4.578125 C 11.125 5.117188 9.34375 4.90625 7.375 3.9375 C 5.320312 2.925781 4.078125 1.472656 3.640625 -0.421875 C 3.210938 -2.316406 3.617188 -4.523438 4.859375 -7.046875 L 6.359375 -10.09375 C 7.585938 -12.601562 9.101562 -14.253906 10.90625 -15.046875 C 12.707031 -15.847656 14.617188 -15.75 16.640625 -14.75 C 18.617188 -13.78125 19.847656 -12.484375 20.328125 -10.859375 C 20.804688 -9.242188 20.613281 -7.363281 19.75 -5.21875 L 16.046875 -7.03125 C 16.648438 -8.332031 16.890625 -9.316406 16.765625 -9.984375 C 16.640625 -10.648438 16.097656 -11.21875 15.140625 -11.6875 C 14.148438 -12.175781 13.28125 -12.175781 12.53125 -11.6875 C 11.789062 -11.195312 11.015625 -10.175781 10.203125 -8.625 L 8.515625 -5.1875 C 7.628906 -3.375 7.222656 -2.023438 7.296875 -1.140625 C 7.367188 -0.265625 7.894531 0.410156 8.875 0.890625 C 9.84375 1.367188 10.625 1.457031 11.21875 1.15625 C 11.820312 0.863281 12.457031 0.113281 13.125 -1.09375 Z M 16.796875 0.703125 "/></g></g></g><g fill="#fffefe" fill-opacity="1"><g transform="translate(336.153328, 127.262845)"><g><path d="M 17.90625 1.5 C 16.4375 3.800781 14.753906 5.242188 12.859375 5.828125 C 10.972656 6.410156 9.0625 6.085938 7.125 4.859375 C 5.207031 3.640625 4.097656 2.050781 3.796875 0.09375 C 3.503906 -1.863281 4.066406 -3.976562 5.484375 -6.25 L 7.34375 -9.1875 C 8.832031 -11.539062 10.546875 -13.03125 12.484375 -13.65625 C 14.421875 -14.289062 16.351562 -13.992188 18.28125 -12.765625 C 20.195312 -11.554688 21.289062 -9.953125 21.5625 -7.953125 C 21.832031 -5.953125 21.234375 -3.773438 19.765625 -1.421875 Z M 16.25 -3.5625 C 17.226562 -5.113281 17.738281 -6.398438 17.78125 -7.421875 C 17.820312 -8.453125 17.375 -9.265625 16.4375 -9.859375 C 15.53125 -10.441406 14.625 -10.507812 13.71875 -10.0625 C 12.8125 -9.625 11.878906 -8.671875 10.921875 -7.203125 L 9 -4.15625 C 8.039062 -2.65625 7.5625 -1.40625 7.5625 -0.40625 C 7.570312 0.582031 8.039062 1.375 8.96875 1.96875 C 9.875 2.539062 10.765625 2.617188 11.640625 2.203125 C 12.515625 1.796875 13.421875 0.863281 14.359375 -0.59375 Z M 16.25 -3.5625 "/></g></g></g><g fill="#fffefe" fill-opacity="1"><g transform="translate(350.418868, 136.284841)"><g><path d="M 12.328125 9.921875 L 9.125 7.34375 L 12.8125 -6.78125 L 4.46875 3.59375 L 1.265625 1.015625 L 14 -14.796875 L 17.203125 -12.21875 L 13.515625 1.9375 L 21.875 -8.453125 L 25.0625 -5.890625 Z M 12.328125 9.921875 "/></g></g></g><g fill="#fffefe" fill-opacity="1"><g transform="translate(363.859027, 147.380701)"><g/></g></g><g fill="#fffefe" fill-opacity="1"><g transform="translate(368.766064, 151.731338)"><g><path d="M 10.671875 5.609375 L 6.921875 1.46875 L 3.109375 3.4375 L 0.203125 0.234375 L 19.515625 -8.6875 L 22.015625 -5.921875 L 11.265625 12.4375 L 8.328125 9.203125 Z M 10.0625 -0.171875 L 12.59375 2.640625 L 16.6875 -3.609375 Z M 10.0625 -0.171875 "/></g></g></g><g fill="#fffefe" fill-opacity="1"><g transform="translate(379.990962, 164.241297)"><g><path d="M 6.140625 2.59375 L 10.40625 8.375 L 7.671875 10.390625 L 0.96875 1.3125 L 17.296875 -10.734375 L 19.734375 -7.4375 Z M 6.140625 2.59375 "/></g></g></g><g fill="#fffefe" fill-opacity="1"><g transform="translate(388.091981, 174.799655)"><g><path d="M 21.078125 -4.046875 L 10.265625 6.578125 L 24.890625 2.59375 L 27.546875 7.21875 L 9.953125 17.328125 L 7.90625 13.765625 L 12.65625 11.03125 L 20.1875 7.140625 L 6.078125 10.578125 L 4.6875 8.15625 L 14.765625 -2.3125 L 7.609375 2.234375 L 2.859375 4.96875 L 0.8125 1.40625 L 18.40625 -8.703125 Z M 21.078125 -4.046875 "/></g></g></g><g fill="#fffefe" fill-opacity="1"><g transform="translate(398.540228, 193.219747)"><g><path d="M 8.203125 8.828125 L 6.046875 3.6875 L 1.796875 4.28125 L 0.125 0.28125 L 21.296875 -1.703125 L 22.734375 1.734375 L 6.484375 15.484375 L 4.796875 11.4375 Z M 9.53125 3.1875 L 10.984375 6.671875 L 16.9375 2.140625 Z M 9.53125 3.1875 "/></g></g></g><g fill="#fffefe" fill-opacity="1"><g transform="translate(122.410275, 358.936246)"><g><path d="M 14.0625 -1.546875 L 16.84375 2.5625 L 10.921875 6.546875 C 9.421875 7.554688 8.015625 7.960938 6.703125 7.765625 C 5.398438 7.578125 4.265625 6.769531 3.296875 5.34375 C 2.328125 3.894531 2 2.53125 2.3125 1.25 C 2.625 -0.03125 3.53125 -1.175781 5.03125 -2.1875 L 14.734375 -8.734375 C 16.242188 -9.742188 17.648438 -10.15625 18.953125 -9.96875 C 20.253906 -9.78125 21.390625 -8.960938 22.359375 -7.515625 C 23.328125 -6.085938 23.65625 -4.726562 23.34375 -3.4375 C 23.039062 -2.15625 22.132812 -1.007812 20.625 0 L 18.8125 1.234375 L 16.9375 -1.546875 L 18.9375 -2.890625 C 19.601562 -3.347656 19.984375 -3.804688 20.078125 -4.265625 C 20.171875 -4.722656 20.054688 -5.1875 19.734375 -5.65625 C 19.429688 -6.101562 19.046875 -6.375 18.578125 -6.46875 C 18.117188 -6.5625 17.554688 -6.378906 16.890625 -5.921875 L 6.8125 0.859375 C 6.144531 1.316406 5.769531 1.773438 5.6875 2.234375 C 5.601562 2.691406 5.710938 3.144531 6.015625 3.59375 C 6.335938 4.0625 6.722656 4.34375 7.171875 4.4375 C 7.628906 4.53125 8.191406 4.347656 8.859375 3.890625 L 12.296875 1.578125 L 11.390625 0.25 Z M 14.0625 -1.546875 "/></g></g></g><g fill="#fffefe" fill-opacity="1"><g transform="translate(129.929925, 370.047329)"><g><path d="M 5.421875 6.765625 C 5.515625 6.640625 5.597656 6.519531 5.671875 6.40625 C 5.742188 6.300781 5.84375 6.171875 5.96875 6.015625 C 6.101562 5.867188 6.285156 5.695312 6.515625 5.5 C 6.753906 5.300781 7.046875 5.0625 7.390625 4.78125 L 10.140625 2.578125 C 10.960938 1.921875 11.425781 1.316406 11.53125 0.765625 C 11.632812 0.210938 11.429688 -0.378906 10.921875 -1.015625 L 10.15625 -1.984375 L 3.015625 3.75 L 0.796875 1 L 18.328125 -13.0625 L 21.671875 -8.890625 C 22.816406 -7.460938 23.316406 -6.160156 23.171875 -4.984375 C 23.035156 -3.804688 22.285156 -2.671875 20.921875 -1.578125 L 19.546875 -0.484375 C 17.742188 0.960938 16.070312 1.316406 14.53125 0.578125 C 14.8125 1.503906 14.734375 2.351562 14.296875 3.125 C 13.867188 3.90625 13.195312 4.664062 12.28125 5.40625 L 9.578125 7.5625 C 9.128906 7.914062 8.753906 8.238281 8.453125 8.53125 C 8.160156 8.820312 7.898438 9.164062 7.671875 9.5625 Z M 18.0625 -8.3125 L 12.671875 -4 L 13.53125 -2.90625 C 13.945312 -2.382812 14.40625 -2.082031 14.90625 -2 C 15.40625 -1.914062 16.007812 -2.160156 16.71875 -2.734375 L 18.453125 -4.125 C 19.085938 -4.625 19.453125 -5.101562 19.546875 -5.5625 C 19.648438 -6.019531 19.507812 -6.492188 19.125 -6.984375 Z M 18.0625 -8.3125 "/></g></g></g><g fill="#fffefe" fill-opacity="1"><g transform="translate(138.601241, 380.79821)"><g><path d="M 8.765625 9.21875 L 6.3125 6.625 L 8.84375 3.375 L 5.84375 0.234375 L 2.484375 2.609375 L 0.25 0.265625 L 19 -12.640625 L 22.578125 -8.890625 Z M 8.359375 -1.53125 L 10.71875 0.9375 L 17.796875 -8.140625 Z M 8.359375 -1.53125 "/></g></g></g><g fill="#fffefe" fill-opacity="1"><g transform="translate(148.253608, 390.836323)"><g><path d="M 15.96875 -15.875 L 18.59375 -13.515625 L 5.734375 0.828125 L 10.078125 4.71875 L 7.921875 7.109375 L 0.953125 0.859375 Z M 15.96875 -15.875 "/></g></g></g><g fill="#fffefe" fill-opacity="1"><g transform="translate(156.966476, 398.539328)"><g><path d="M 5.78125 0.28125 L 3.65625 2.9375 L 1 0.796875 L 3.125 -1.859375 Z M 5.78125 0.28125 "/></g></g></g><g fill="#fffefe" fill-opacity="1"><g transform="translate(162.05651, 402.59153)"><g/></g></g><g fill="#fffefe" fill-opacity="1"><g transform="translate(166.510259, 405.931691)"><g><path d="M 2.078125 -2.484375 C 2.210938 -2.359375 2.367188 -2.234375 2.546875 -2.109375 C 2.722656 -1.992188 2.894531 -1.878906 3.0625 -1.765625 C 3.519531 -1.460938 3.988281 -1.3125 4.46875 -1.3125 C 4.957031 -1.320312 5.445312 -1.6875 5.9375 -2.40625 L 15.5625 -16.609375 L 18.484375 -14.625 L 9.015625 -0.640625 C 8.378906 0.296875 7.738281 0.988281 7.09375 1.4375 C 6.457031 1.882812 5.828125 2.144531 5.203125 2.21875 C 4.578125 2.300781 3.960938 2.238281 3.359375 2.03125 C 2.765625 1.832031 2.195312 1.550781 1.65625 1.1875 C 1.382812 1.007812 1.140625 0.84375 0.921875 0.6875 C 0.710938 0.539062 0.492188 0.375 0.265625 0.1875 Z M 2.078125 -2.484375 "/></g></g></g><g fill="#fffefe" fill-opacity="1"><g transform="translate(173.846432, 410.854947)"><g><path d="M 5.78125 -0.46875 L 4 2.4375 L 1.09375 0.671875 L 2.875 -2.234375 Z M 5.78125 -0.46875 "/></g></g></g><g fill="#fffefe" fill-opacity="1"><g transform="translate(179.41048, 414.227802)"><g/></g></g><g fill="#fffefe" fill-opacity="1"><g transform="translate(184.320179, 417.103109)"><g><path d="M 10.984375 -19.65625 L 16.015625 -17.21875 C 17.617188 -16.4375 18.601562 -15.429688 18.96875 -14.203125 C 19.332031 -12.984375 19.117188 -11.554688 18.328125 -9.921875 L 13.359375 0.3125 C 12.554688 1.945312 11.5625 3 10.375 3.46875 C 9.1875 3.9375 7.789062 3.78125 6.1875 3 L 1.15625 0.5625 Z M 12.75 -15.234375 L 5.734375 -0.78125 L 7.53125 0.09375 C 8.03125 0.332031 8.492188 0.378906 8.921875 0.234375 C 9.359375 0.0859375 9.753906 -0.347656 10.109375 -1.078125 L 15.21875 -11.609375 C 15.570312 -12.335938 15.671875 -12.914062 15.515625 -13.34375 C 15.367188 -13.78125 15.046875 -14.117188 14.546875 -14.359375 Z M 12.75 -15.234375 "/></g></g></g><g fill="#fffefe" fill-opacity="1"><g transform="translate(196.920716, 423.154576)"><g><path d="M 9.203125 -10.375 L 13.734375 -8.625 L 12.5625 -5.625 L 8.03125 -7.375 L 5.65625 -1.25 L 11.34375 0.953125 L 10.171875 3.953125 L 1.1875 0.46875 L 9.34375 -20.484375 L 18.328125 -17 L 17.15625 -14.015625 L 11.46875 -16.21875 Z M 9.203125 -10.375 "/></g></g></g><g fill="#fffefe" fill-opacity="1"><g transform="translate(208.605244, 427.577334)"><g/></g></g><g fill="#fffefe" fill-opacity="1"><g transform="translate(213.961322, 429.411213)"><g><path d="M 5.1875 -16.296875 C 5.65625 -18.054688 6.4375 -19.296875 7.53125 -20.015625 C 8.625 -20.742188 10.007812 -20.882812 11.6875 -20.4375 C 13.351562 -19.988281 14.484375 -19.179688 15.078125 -18.015625 C 15.671875 -16.847656 15.734375 -15.382812 15.265625 -13.625 L 15.03125 -12.78125 L 11.796875 -13.640625 L 12.078125 -14.703125 C 12.285156 -15.484375 12.28125 -16.078125 12.0625 -16.484375 C 11.851562 -16.890625 11.484375 -17.160156 10.953125 -17.296875 C 10.410156 -17.441406 9.945312 -17.390625 9.5625 -17.140625 C 9.175781 -16.898438 8.878906 -16.390625 8.671875 -15.609375 C 8.472656 -14.859375 8.457031 -14.15625 8.625 -13.5 C 8.800781 -12.84375 9.070312 -12.195312 9.4375 -11.5625 C 9.8125 -10.925781 10.210938 -10.28125 10.640625 -9.625 C 11.078125 -8.96875 11.460938 -8.269531 11.796875 -7.53125 C 12.140625 -6.800781 12.375 -6.007812 12.5 -5.15625 C 12.632812 -4.300781 12.566406 -3.351562 12.296875 -2.3125 C 11.828125 -0.5625 11.035156 0.664062 9.921875 1.375 C 8.816406 2.082031 7.421875 2.21875 5.734375 1.78125 C 4.066406 1.332031 2.925781 0.523438 2.3125 -0.640625 C 1.695312 -1.804688 1.625 -3.265625 2.09375 -5.015625 L 2.484375 -6.515625 L 5.71875 -5.65625 L 5.265625 -3.953125 C 5.054688 -3.171875 5.070312 -2.582031 5.3125 -2.1875 C 5.550781 -1.789062 5.9375 -1.519531 6.46875 -1.375 C 7.019531 -1.226562 7.492188 -1.269531 7.890625 -1.5 C 8.285156 -1.726562 8.585938 -2.234375 8.796875 -3.015625 C 8.992188 -3.753906 9.003906 -4.453125 8.828125 -5.109375 C 8.660156 -5.773438 8.394531 -6.425781 8.03125 -7.0625 C 7.664062 -7.695312 7.265625 -8.34375 6.828125 -9 C 6.398438 -9.664062 6.015625 -10.363281 5.671875 -11.09375 C 5.328125 -11.820312 5.085938 -12.613281 4.953125 -13.46875 C 4.828125 -14.320312 4.90625 -15.265625 5.1875 -16.296875 Z M 5.1875 -16.296875 "/></g></g></g><g fill="#fffefe" fill-opacity="1"><g transform="translate(226.42507, 432.707149)"><g><path d="M 12.515625 2.25 L 9.015625 1.625 L 9.125 -2.5 L 4.859375 -3.265625 L 3.53125 0.640625 L 0.359375 0.0625 L 7.875 -21.421875 L 12.96875 -20.515625 Z M 5.84375 -6.1875 L 9.203125 -5.59375 L 9.53125 -17.078125 Z M 5.84375 -6.1875 "/></g></g></g><g fill="#fffefe" fill-opacity="1"><g transform="translate(240.203133, 435.158175)"><g><path d="M 5.890625 -15.8125 L 4.421875 0.40625 L 1.25 0.109375 L 3.28125 -22.28125 L 7.703125 -21.875 L 10.09375 -8.15625 L 11.3125 -21.546875 L 14.453125 -21.265625 L 12.421875 1.125 L 8.796875 0.796875 Z M 5.890625 -15.8125 "/></g></g></g><g fill="#fffefe" fill-opacity="1"><g transform="translate(254.591285, 436.307637)"><g/></g></g><g fill="#fffefe" fill-opacity="1"><g transform="translate(260.380096, 436.67362)"><g><path d="M 8.46875 -6.90625 L 10.171875 -22.953125 L 15.09375 -23.171875 L 16.078125 -0.703125 L 12.734375 -0.5625 L 12.03125 -16.671875 L 10.296875 -0.453125 L 6.96875 -0.3125 L 3.640625 -16.078125 L 4.34375 -0.1875 L 1.25 -0.0625 L 0.265625 -22.53125 L 5.1875 -22.734375 Z M 8.46875 -6.90625 "/></g></g></g><g fill="#fffefe" fill-opacity="1"><g transform="translate(278.739909, 435.711184)"><g><path d="M 12.59375 -1.8125 L 9.0625 -1.296875 L 7.875 -5.25 L 3.578125 -4.625 L 3.5625 -0.515625 L 0.359375 -0.046875 L 0.703125 -22.8125 L 5.828125 -23.546875 Z M 3.59375 -7.703125 L 6.96875 -8.1875 L 3.65625 -19.21875 Z M 3.59375 -7.703125 "/></g></g></g><g fill="#fffefe" fill-opacity="1"><g transform="translate(292.565191, 433.679944)"><g><path d="M 8.453125 -1.953125 C 8.378906 -2.085938 8.304688 -2.210938 8.234375 -2.328125 C 8.160156 -2.453125 8.085938 -2.601562 8.015625 -2.78125 C 7.941406 -2.957031 7.863281 -3.191406 7.78125 -3.484375 C 7.707031 -3.785156 7.617188 -4.148438 7.515625 -4.578125 L 6.71875 -8.03125 C 6.476562 -9.050781 6.132812 -9.726562 5.6875 -10.0625 C 5.238281 -10.394531 4.617188 -10.46875 3.828125 -10.28125 L 2.625 -10 L 4.6875 -1.078125 L 1.25 -0.296875 L -3.828125 -22.203125 L 1.375 -23.40625 C 3.164062 -23.8125 4.554688 -23.691406 5.546875 -23.046875 C 6.546875 -22.398438 7.242188 -21.226562 7.640625 -19.53125 L 8.03125 -17.8125 C 8.5625 -15.5625 8.15625 -13.910156 6.8125 -12.859375 C 7.769531 -12.703125 8.503906 -12.257812 9.015625 -11.53125 C 9.523438 -10.8125 9.910156 -9.878906 10.171875 -8.734375 L 10.96875 -5.34375 C 11.09375 -4.800781 11.222656 -4.332031 11.359375 -3.9375 C 11.492188 -3.539062 11.691406 -3.148438 11.953125 -2.765625 Z M 0.34375 -19.859375 L 1.890625 -13.140625 L 3.25 -13.46875 C 3.894531 -13.613281 4.363281 -13.890625 4.65625 -14.296875 C 4.945312 -14.710938 4.988281 -15.363281 4.78125 -16.25 L 4.28125 -18.40625 C 4.09375 -19.195312 3.816406 -19.738281 3.453125 -20.03125 C 3.097656 -20.320312 2.613281 -20.394531 2 -20.25 Z M 0.34375 -19.859375 "/></g></g></g><g fill="#fffefe" fill-opacity="1"><g transform="translate(305.970681, 430.51089)"><g><path d="M -6.5 -21.53125 L 3.90625 -24.84375 L 4.890625 -21.78125 L 1.359375 -20.65625 L 7.1875 -2.28125 L 3.828125 -1.21875 L -2 -19.59375 L -5.515625 -18.46875 Z M -6.5 -21.53125 "/></g></g></g><g fill="#fffefe" fill-opacity="1"><g transform="translate(317.623367, 426.706749)"><g><path d="M -6.828125 -21.453125 L -3.53125 -22.71875 L 4.5 -1.71875 L 1.203125 -0.453125 Z M -2.9375 -28.15625 L -4.8125 -23.390625 L -7.171875 -22.5 L -6.359375 -26.84375 Z M -2.9375 -28.15625 "/></g></g></g><g fill="#fffefe" fill-opacity="1"><g transform="translate(324.060914, 424.348847)"><g><path d="M -2.765625 -16.65625 L 4.03125 -1.859375 L 1.140625 -0.515625 L -8.25 -20.953125 L -4.21875 -22.8125 L 4.703125 -12.09375 L -0.921875 -24.328125 L 1.9375 -25.640625 L 11.328125 -5.203125 L 8.015625 -3.6875 Z M -2.765625 -16.65625 "/></g></g></g><g fill="#fffefe" fill-opacity="1"><g transform="translate(337.112582, 418.186719)"><g/></g></g><g fill="#fffefe" fill-opacity="1"><g transform="translate(342.041495, 415.573925)"><g><path d="M -5.609375 -11.609375 L -0.09375 -14.890625 L 1.546875 -12.140625 L -3.96875 -8.859375 Z M -5.609375 -11.609375 "/></g></g></g><g fill="#fffefe" fill-opacity="1"><g transform="translate(349.978734, 410.785935)"><g/></g></g><g fill="#fffefe" fill-opacity="1"><g transform="translate(354.75996, 407.734105)"><g><path d="M 4.234375 -13.625 L 6.03125 -11.21875 C 7.113281 -9.757812 7.585938 -8.367188 7.453125 -7.046875 C 7.328125 -5.734375 6.570312 -4.5625 5.1875 -3.53125 C 3.789062 -2.5 2.441406 -2.109375 1.140625 -2.359375 C -0.148438 -2.609375 -1.335938 -3.460938 -2.421875 -4.921875 L -9.40625 -14.3125 C -10.5 -15.769531 -10.976562 -17.15625 -10.84375 -18.46875 C -10.707031 -19.78125 -9.941406 -20.953125 -8.546875 -21.984375 C -7.160156 -23.015625 -5.820312 -23.40625 -4.53125 -23.15625 C -3.238281 -22.914062 -2.046875 -22.066406 -0.953125 -20.609375 L 0.359375 -18.84375 L -2.328125 -16.84375 L -3.765625 -18.78125 C -4.253906 -19.4375 -4.726562 -19.796875 -5.1875 -19.859375 C -5.644531 -19.929688 -6.097656 -19.800781 -6.546875 -19.46875 C -6.992188 -19.132812 -7.25 -18.734375 -7.3125 -18.265625 C -7.382812 -17.804688 -7.175781 -17.25 -6.6875 -16.59375 L 0.546875 -6.859375 C 1.035156 -6.203125 1.507812 -5.84375 1.96875 -5.78125 C 2.425781 -5.71875 2.878906 -5.851562 3.328125 -6.1875 C 3.773438 -6.519531 4.03125 -6.914062 4.09375 -7.375 C 4.164062 -7.832031 3.957031 -8.390625 3.46875 -9.046875 L 1.546875 -11.625 Z M 4.234375 -13.625 "/></g></g></g><g fill="#fffefe" fill-opacity="1"><g transform="translate(365.426928, 399.784517)"><g><path d="M 3.609375 -3.1875 L 0.953125 -0.84375 L -13.953125 -17.671875 L -11.296875 -20.015625 L -4.90625 -12.796875 L -1.90625 -15.46875 L -8.296875 -22.6875 L -5.59375 -25.078125 L 9.3125 -8.25 L 6.609375 -5.859375 L 0.21875 -13.078125 L -2.78125 -10.40625 Z M 3.609375 -3.1875 "/></g></g></g><g fill="#fffefe" fill-opacity="1"><g transform="translate(376.350099, 390.046408)"><g><path d="M 8.75 -9.234375 L 6.296875 -6.640625 L 2.921875 -9.015625 L -0.0625 -5.859375 L 2.46875 -2.609375 L 0.25 -0.265625 L -13.59375 -18.34375 L -10.03125 -22.09375 Z M -1.96875 -8.28125 L 0.375 -10.75 L -9.046875 -17.34375 Z M -1.96875 -8.28125 "/></g></g></g><g fill="#fffefe" fill-opacity="1"><g transform="translate(385.915657, 379.874639)"><g><path d="M 0.671875 -14.25 L 3.015625 -12.375 C 4.429688 -11.238281 5.238281 -10.015625 5.4375 -8.703125 C 5.632812 -7.398438 5.191406 -6.078125 4.109375 -4.734375 C 3.015625 -3.378906 1.8125 -2.660156 0.5 -2.578125 C -0.800781 -2.492188 -2.160156 -3.019531 -3.578125 -4.15625 L -12.71875 -11.46875 C -14.132812 -12.613281 -14.945312 -13.835938 -15.15625 -15.140625 C -15.363281 -16.441406 -14.921875 -17.769531 -13.828125 -19.125 C -12.742188 -20.46875 -11.539062 -21.179688 -10.21875 -21.265625 C -8.90625 -21.359375 -7.539062 -20.832031 -6.125 -19.6875 L -4.40625 -18.328125 L -6.5 -15.71875 L -8.390625 -17.21875 C -9.015625 -17.726562 -9.5625 -17.957031 -10.03125 -17.90625 C -10.5 -17.863281 -10.90625 -17.625 -11.25 -17.1875 C -11.601562 -16.75 -11.753906 -16.296875 -11.703125 -15.828125 C -11.648438 -15.359375 -11.3125 -14.867188 -10.6875 -14.359375 L -1.203125 -6.765625 C -0.566406 -6.253906 -0.0195312 -6.023438 0.4375 -6.078125 C 0.894531 -6.140625 1.300781 -6.390625 1.65625 -6.828125 C 2 -7.265625 2.148438 -7.710938 2.109375 -8.171875 C 2.066406 -8.628906 1.726562 -9.113281 1.09375 -9.625 L -1.421875 -11.640625 Z M 0.671875 -14.25 "/></g></g></g><g fill="#fffefe" fill-opacity="1"><g transform="translate(394.200134, 369.501302)"><g><path d="M -1.75 -6.640625 C -1.082031 -6.191406 -0.515625 -6.007812 -0.046875 -6.09375 C 0.410156 -6.1875 0.796875 -6.460938 1.109375 -6.921875 C 1.421875 -7.390625 1.53125 -7.851562 1.4375 -8.3125 C 1.34375 -8.769531 0.960938 -9.222656 0.296875 -9.671875 L -9.765625 -16.46875 C -10.441406 -16.925781 -11.007812 -17.109375 -11.46875 -17.015625 C -11.925781 -16.929688 -12.3125 -16.65625 -12.625 -16.1875 C -12.9375 -15.726562 -13.046875 -15.269531 -12.953125 -14.8125 C -12.867188 -14.351562 -12.488281 -13.894531 -11.8125 -13.4375 Z M -13.609375 -10.390625 C -15.117188 -11.410156 -16.019531 -12.578125 -16.3125 -13.890625 C -16.601562 -15.203125 -16.265625 -16.570312 -15.296875 -18 C -14.328125 -19.445312 -13.179688 -20.273438 -11.859375 -20.484375 C -10.535156 -20.703125 -9.117188 -20.300781 -7.609375 -19.28125 L 2.09375 -12.734375 C 3.59375 -11.722656 4.488281 -10.5625 4.78125 -9.25 C 5.070312 -7.945312 4.734375 -6.570312 3.765625 -5.125 C 2.796875 -3.695312 1.648438 -2.875 0.328125 -2.65625 C -0.992188 -2.4375 -2.40625 -2.832031 -3.90625 -3.84375 Z M -13.609375 -10.390625 "/></g></g></g><g fill="#fffefe" fill-opacity="1"><g transform="translate(122.657081, 253.969631)"><g><path d="M 2.296875 -29.515625 C 2.296875 -29.953125 2.28125 -30.398438 2.25 -30.859375 C 2.226562 -31.328125 2.207031 -31.78125 2.1875 -32.21875 C 2.175781 -32.65625 2.15625 -33.035156 2.125 -33.359375 C 2.101562 -33.691406 2.09375 -33.925781 2.09375 -34.0625 C 2.09375 -34.25 2.164062 -34.472656 2.3125 -34.734375 C 2.46875 -34.992188 2.664062 -35.234375 2.90625 -35.453125 C 3.15625 -35.671875 3.429688 -35.847656 3.734375 -35.984375 C 4.035156 -36.117188 4.347656 -36.1875 4.671875 -36.1875 C 5.296875 -36.1875 5.660156 -36.085938 5.765625 -35.890625 C 5.878906 -35.703125 5.9375 -35.460938 5.9375 -35.171875 C 5.9375 -34.179688 5.957031 -33.078125 6 -31.859375 C 6.039062 -30.648438 5.984375 -29.519531 5.828125 -28.46875 C 5.679688 -27.414062 5.367188 -26.53125 4.890625 -25.8125 C 4.421875 -25.101562 3.675781 -24.75 2.65625 -24.75 C 2.28125 -24.75 2.050781 -24.820312 1.96875 -24.96875 C 1.882812 -25.125 1.867188 -25.382812 1.921875 -25.75 C 1.984375 -26.125 2.0625 -26.617188 2.15625 -27.234375 C 2.25 -27.847656 2.296875 -28.609375 2.296875 -29.515625 Z M 8.640625 -29.515625 C 8.640625 -29.953125 8.625 -30.398438 8.59375 -30.859375 C 8.570312 -31.328125 8.554688 -31.78125 8.546875 -32.21875 C 8.535156 -32.65625 8.515625 -33.035156 8.484375 -33.359375 C 8.453125 -33.691406 8.4375 -33.925781 8.4375 -34.0625 C 8.46875 -34.46875 8.75 -34.878906 9.28125 -35.296875 C 9.8125 -35.722656 10.429688 -35.9375 11.140625 -35.9375 C 11.472656 -35.9375 11.75 -35.738281 11.96875 -35.34375 C 12.1875 -34.945312 12.296875 -34.597656 12.296875 -34.296875 C 12.296875 -33.316406 12.273438 -32.253906 12.234375 -31.109375 C 12.191406 -29.960938 12.066406 -28.910156 11.859375 -27.953125 C 11.660156 -26.992188 11.332031 -26.191406 10.875 -25.546875 C 10.425781 -24.910156 9.78125 -24.59375 8.9375 -24.59375 C 8.550781 -24.59375 8.320312 -24.734375 8.25 -25.015625 C 8.1875 -25.304688 8.179688 -25.679688 8.234375 -26.140625 C 8.285156 -26.609375 8.363281 -27.132812 8.46875 -27.71875 C 8.582031 -28.3125 8.640625 -28.910156 8.640625 -29.515625 Z M 8.640625 -29.515625 "/></g></g></g><g fill="#fffefe" fill-opacity="1"><g transform="translate(139.90747, 253.969631)"><g><path d="M 23.6875 -35.25 C 23.6875 -34.78125 23.625 -34.28125 23.5 -33.75 C 23.375 -33.21875 23.207031 -32.59375 23 -31.875 C 22.800781 -31.164062 22.59375 -30.332031 22.375 -29.375 C 22.15625 -28.425781 21.941406 -27.285156 21.734375 -25.953125 C 21.535156 -24.628906 21.375 -23.09375 21.25 -21.34375 C 21.125 -19.601562 21.0625 -17.582031 21.0625 -15.28125 C 21.0625 -12.882812 21.179688 -10.820312 21.421875 -9.09375 C 21.671875 -7.375 21.945312 -5.925781 22.25 -4.75 C 22.550781 -3.570312 22.835938 -2.632812 23.109375 -1.9375 C 23.390625 -1.25 23.566406 -0.71875 23.640625 -0.34375 C 23.722656 0.0195312 23.648438 0.253906 23.421875 0.359375 C 23.191406 0.472656 22.734375 0.53125 22.046875 0.53125 C 20.953125 0.53125 20.015625 0.234375 19.234375 -0.359375 C 18.460938 -0.960938 17.804688 -1.769531 17.265625 -2.78125 C 16.734375 -3.789062 16.3125 -4.953125 16 -6.265625 C 15.6875 -7.578125 15.445312 -8.953125 15.28125 -10.390625 C 15.125 -11.828125 15.015625 -13.257812 14.953125 -14.6875 C 14.898438 -16.125 14.875 -17.484375 14.875 -18.765625 C 14.875 -19.941406 14.925781 -21.234375 15.03125 -22.640625 C 15.144531 -24.046875 15.3125 -25.488281 15.53125 -26.96875 C 15.070312 -25.46875 14.582031 -23.722656 14.0625 -21.734375 C 13.539062 -19.753906 13.015625 -17.554688 12.484375 -15.140625 C 11.953125 -12.722656 11.429688 -10.085938 10.921875 -7.234375 C 10.421875 -4.378906 9.953125 -1.335938 9.515625 1.890625 C 9.703125 2.265625 9.75 2.5 9.65625 2.59375 C 9.5625 2.695312 9.238281 2.75 8.6875 2.75 C 7.894531 2.75 6.984375 2.398438 5.953125 1.703125 C 4.929688 1.003906 3.960938 -0.0859375 3.046875 -1.578125 C 2.140625 -3.066406 1.367188 -4.972656 0.734375 -7.296875 C 0.109375 -9.617188 -0.203125 -12.40625 -0.203125 -15.65625 C -0.203125 -17.351562 -0.132812 -18.914062 0 -20.34375 C 0.132812 -21.78125 0.285156 -23.050781 0.453125 -24.15625 C 0.617188 -25.257812 0.769531 -26.175781 0.90625 -26.90625 C 1.039062 -27.632812 1.109375 -28.132812 1.109375 -28.40625 C 1.109375 -28.59375 1.117188 -28.820312 1.140625 -29.09375 C 1.171875 -29.375 1.238281 -29.640625 1.34375 -29.890625 C 1.457031 -30.148438 1.613281 -30.375 1.8125 -30.5625 C 2.019531 -30.757812 2.300781 -30.859375 2.65625 -30.859375 C 3.019531 -30.859375 3.492188 -30.722656 4.078125 -30.453125 C 4.660156 -30.179688 5.238281 -29.828125 5.8125 -29.390625 C 6.394531 -28.953125 6.890625 -28.457031 7.296875 -27.90625 C 7.703125 -27.363281 7.90625 -26.832031 7.90625 -26.3125 C 7.90625 -25.769531 7.835938 -25.066406 7.703125 -24.203125 C 7.566406 -23.335938 7.410156 -22.363281 7.234375 -21.28125 C 7.054688 -20.207031 6.898438 -19.039062 6.765625 -17.78125 C 6.628906 -16.53125 6.5625 -15.25 6.5625 -13.9375 C 6.5625 -11.039062 6.707031 -8.609375 7 -6.640625 C 7.300781 -4.671875 7.644531 -3.070312 8.03125 -1.84375 C 8.195312 -2.71875 8.4375 -3.941406 8.75 -5.515625 C 9.0625 -7.085938 9.425781 -8.84375 9.84375 -10.78125 C 10.269531 -12.71875 10.75 -14.769531 11.28125 -16.9375 C 11.820312 -19.113281 12.390625 -21.238281 12.984375 -23.3125 C 13.585938 -25.394531 14.21875 -27.347656 14.875 -29.171875 C 15.53125 -31.003906 16.203125 -32.566406 16.890625 -33.859375 C 17.265625 -35.328125 17.65625 -36.519531 18.0625 -37.4375 C 18.476562 -38.351562 18.878906 -38.8125 19.265625 -38.8125 C 19.753906 -38.8125 20.257812 -38.75 20.78125 -38.625 C 21.300781 -38.5 21.78125 -38.300781 22.21875 -38.03125 C 22.65625 -37.757812 23.007812 -37.394531 23.28125 -36.9375 C 23.550781 -36.488281 23.6875 -35.925781 23.6875 -35.25 Z M 23.6875 -35.25 "/></g></g></g><g fill="#fffefe" fill-opacity="1"><g transform="translate(167.318997, 253.969631)"><g><path d="M 9.21875 -21.765625 C 9.820312 -21.765625 10.382812 -21.613281 10.90625 -21.3125 C 11.425781 -21.007812 11.875 -20.515625 12.25 -19.828125 C 12.632812 -19.148438 12.941406 -18.269531 13.171875 -17.1875 C 13.410156 -16.113281 13.53125 -14.796875 13.53125 -13.234375 C 13.53125 -11.679688 13.390625 -10.101562 13.109375 -8.5 C 12.835938 -6.90625 12.398438 -5.460938 11.796875 -4.171875 C 11.203125 -2.890625 10.429688 -1.847656 9.484375 -1.046875 C 8.546875 -0.242188 7.40625 0.15625 6.0625 0.15625 C 4.863281 0.15625 3.875 -0.148438 3.09375 -0.765625 C 2.3125 -1.378906 1.695312 -2.15625 1.25 -3.09375 C 0.800781 -4.039062 0.492188 -5.078125 0.328125 -6.203125 C 0.160156 -7.335938 0.078125 -8.425781 0.078125 -9.46875 C 0.078125 -10.425781 0.128906 -11.414062 0.234375 -12.4375 C 0.347656 -13.457031 0.539062 -14.40625 0.8125 -15.28125 C 1.09375 -16.15625 1.476562 -16.90625 1.96875 -17.53125 C 2.457031 -18.164062 3.070312 -18.566406 3.8125 -18.734375 C 4.0625 -19.410156 4.390625 -19.953125 4.796875 -20.359375 C 5.203125 -20.773438 5.648438 -21.082031 6.140625 -21.28125 C 6.640625 -21.488281 7.15625 -21.617188 7.6875 -21.671875 C 8.21875 -21.734375 8.726562 -21.765625 9.21875 -21.765625 Z M 8.109375 -2.015625 C 8.546875 -2.015625 8.96875 -2.4375 9.375 -3.28125 C 9.789062 -4.125 10.148438 -5.1875 10.453125 -6.46875 C 10.753906 -7.757812 10.976562 -9.148438 11.125 -10.640625 C 11.28125 -12.128906 11.316406 -13.515625 11.234375 -14.796875 C 11.148438 -16.078125 10.929688 -17.140625 10.578125 -17.984375 C 10.222656 -18.835938 9.675781 -19.265625 8.9375 -19.265625 C 8.601562 -19.265625 8.367188 -19.03125 8.234375 -18.5625 C 8.097656 -18.101562 7.972656 -17.566406 7.859375 -16.953125 C 7.753906 -16.335938 7.617188 -15.710938 7.453125 -15.078125 C 7.296875 -14.453125 7.039062 -13.972656 6.6875 -13.640625 C 6.6875 -12.410156 6.644531 -11.113281 6.5625 -9.75 C 6.476562 -8.382812 6.441406 -7.128906 6.453125 -5.984375 C 6.460938 -4.835938 6.582031 -3.890625 6.8125 -3.140625 C 7.050781 -2.390625 7.484375 -2.015625 8.109375 -2.015625 Z M 8.109375 -2.015625 "/></g></g></g><g fill="#fffefe" fill-opacity="1"><g transform="translate(184.856189, 253.969631)"><g/></g></g><g fill="#fffefe" fill-opacity="1"><g transform="translate(198.50102, 253.969631)"><g><path d="M 17.34375 -12.421875 C 17.414062 -12.609375 17.503906 -12.734375 17.609375 -12.796875 C 17.722656 -12.867188 17.832031 -12.882812 17.9375 -12.84375 C 18.050781 -12.800781 18.132812 -12.710938 18.1875 -12.578125 C 18.25 -12.441406 18.238281 -12.265625 18.15625 -12.046875 C 18.101562 -11.910156 17.992188 -11.546875 17.828125 -10.953125 C 17.660156 -10.367188 17.421875 -9.675781 17.109375 -8.875 C 16.796875 -8.070312 16.398438 -7.21875 15.921875 -6.3125 C 15.441406 -5.40625 14.875 -4.566406 14.21875 -3.796875 C 13.5625 -3.035156 12.800781 -2.410156 11.9375 -1.921875 C 11.082031 -1.429688 10.125 -1.1875 9.0625 -1.1875 C 7.632812 -1.1875 6.351562 -1.472656 5.21875 -2.046875 C 4.09375 -2.617188 3.140625 -3.351562 2.359375 -4.25 C 1.578125 -5.15625 0.976562 -6.148438 0.5625 -7.234375 C 0.15625 -8.316406 -0.046875 -9.375 -0.046875 -10.40625 C -0.046875 -11.75 0.101562 -13.039062 0.40625 -14.28125 C 0.707031 -15.519531 1.078125 -16.660156 1.515625 -17.703125 C 1.953125 -18.742188 2.421875 -19.644531 2.921875 -20.40625 C 3.429688 -21.175781 3.890625 -21.75 4.296875 -22.125 C 4.710938 -22.488281 5.25 -22.757812 5.90625 -22.9375 C 6.5625 -23.113281 7.222656 -23.207031 7.890625 -23.21875 C 8.554688 -23.226562 9.191406 -23.191406 9.796875 -23.109375 C 10.398438 -23.035156 10.863281 -22.914062 11.1875 -22.75 C 11.8125 -22.445312 12.320312 -21.863281 12.71875 -21 C 13.113281 -20.144531 13.3125 -19.140625 13.3125 -17.984375 C 13.3125 -15.828125 12.859375 -14.195312 11.953125 -13.09375 C 11.054688 -11.988281 9.941406 -11.4375 8.609375 -11.4375 C 8.117188 -11.4375 7.601562 -11.488281 7.0625 -11.59375 C 6.53125 -11.707031 6.046875 -11.832031 5.609375 -11.96875 C 5.523438 -10.957031 5.609375 -9.957031 5.859375 -8.96875 C 6.109375 -7.988281 6.441406 -7.113281 6.859375 -6.34375 C 7.285156 -5.582031 7.78125 -4.960938 8.34375 -4.484375 C 8.90625 -4.003906 9.472656 -3.765625 10.046875 -3.765625 C 10.921875 -3.765625 11.695312 -3.960938 12.375 -4.359375 C 13.0625 -4.753906 13.671875 -5.253906 14.203125 -5.859375 C 14.734375 -6.460938 15.179688 -7.117188 15.546875 -7.828125 C 15.921875 -8.535156 16.238281 -9.207031 16.5 -9.84375 C 16.757812 -10.488281 16.945312 -11.050781 17.0625 -11.53125 C 17.1875 -12.007812 17.28125 -12.304688 17.34375 -12.421875 Z M 9.625 -19.671875 C 9.082031 -19.671875 8.59375 -19.476562 8.15625 -19.09375 C 7.71875 -18.71875 7.332031 -18.210938 7 -17.578125 C 6.675781 -16.953125 6.40625 -16.226562 6.1875 -15.40625 C 5.96875 -14.59375 5.804688 -13.734375 5.703125 -12.828125 C 6.578125 -12.441406 7.328125 -12.351562 7.953125 -12.5625 C 8.578125 -12.769531 9.09375 -13.125 9.5 -13.625 C 9.914062 -14.132812 10.21875 -14.734375 10.40625 -15.421875 C 10.601562 -16.117188 10.703125 -16.78125 10.703125 -17.40625 C 10.703125 -18.039062 10.613281 -18.578125 10.4375 -19.015625 C 10.257812 -19.453125 9.988281 -19.671875 9.625 -19.671875 Z M 9.625 -19.671875 "/></g></g></g><g fill="#fffefe" fill-opacity="1"><g transform="translate(215.628492, 253.969631)"><g><path d="M 0.046875 -12.75 C 0.046875 -13.644531 0.25 -14.664062 0.65625 -15.8125 C 1.0625 -16.96875 1.578125 -18.054688 2.203125 -19.078125 C 2.835938 -20.097656 3.539062 -20.960938 4.3125 -21.671875 C 5.09375 -22.390625 5.851562 -22.75 6.59375 -22.75 C 7.332031 -22.75 8.125 -22.75 8.96875 -22.75 C 9.820312 -22.75 10.597656 -22.679688 11.296875 -22.546875 C 11.992188 -22.410156 12.570312 -22.140625 13.03125 -21.734375 C 13.5 -21.335938 13.734375 -20.757812 13.734375 -20 C 13.734375 -19.238281 13.519531 -18.445312 13.09375 -17.625 C 12.664062 -16.800781 12.1875 -16.046875 11.65625 -15.359375 C 11.125 -14.679688 10.601562 -14.125 10.09375 -13.6875 C 9.59375 -13.25 9.257812 -13.03125 9.09375 -13.03125 C 8.90625 -13.03125 8.851562 -13.332031 8.9375 -13.9375 C 9.019531 -14.539062 9.117188 -15.203125 9.234375 -15.921875 C 9.359375 -16.648438 9.460938 -17.3125 9.546875 -17.90625 C 9.628906 -18.507812 9.585938 -18.8125 9.421875 -18.8125 C 8.898438 -18.8125 8.394531 -18.613281 7.90625 -18.21875 C 7.414062 -17.820312 6.960938 -17.328125 6.546875 -16.734375 C 6.140625 -16.148438 5.800781 -15.507812 5.53125 -14.8125 C 5.257812 -14.113281 5.078125 -13.472656 4.984375 -12.890625 C 4.890625 -12.304688 4.898438 -11.8125 5.015625 -11.40625 C 5.140625 -11.007812 5.40625 -10.8125 5.8125 -10.8125 C 5.976562 -10.8125 6.28125 -10.804688 6.71875 -10.796875 C 7.15625 -10.785156 7.644531 -10.75 8.1875 -10.6875 C 8.738281 -10.632812 9.304688 -10.539062 9.890625 -10.40625 C 10.484375 -10.269531 11.019531 -10.070312 11.5 -9.8125 C 11.976562 -9.550781 12.375 -9.21875 12.6875 -8.8125 C 13 -8.40625 13.15625 -7.898438 13.15625 -7.296875 C 13.15625 -6.691406 12.988281 -6.035156 12.65625 -5.328125 C 12.332031 -4.617188 11.90625 -3.914062 11.375 -3.21875 C 10.84375 -2.519531 10.238281 -1.84375 9.5625 -1.1875 C 8.894531 -0.53125 8.226562 0.046875 7.5625 0.546875 C 6.894531 1.054688 6.257812 1.460938 5.65625 1.765625 C 5.050781 2.066406 4.546875 2.21875 4.140625 2.21875 C 3.535156 2.21875 2.992188 2.109375 2.515625 1.890625 C 2.035156 1.671875 1.648438 1.421875 1.359375 1.140625 C 1.078125 0.867188 0.914062 0.625 0.875 0.40625 C 0.832031 0.1875 0.953125 0.078125 1.234375 0.078125 C 1.554688 0.078125 1.96875 -0.0664062 2.46875 -0.359375 C 2.976562 -0.660156 3.515625 -1.050781 4.078125 -1.53125 C 4.640625 -2.007812 5.207031 -2.539062 5.78125 -3.125 C 6.351562 -3.71875 6.863281 -4.296875 7.3125 -4.859375 C 7.757812 -5.421875 8.128906 -5.929688 8.421875 -6.390625 C 8.710938 -6.859375 8.859375 -7.210938 8.859375 -7.453125 C 7.210938 -7.265625 5.734375 -7.320312 4.421875 -7.625 C 3.878906 -7.726562 3.34375 -7.90625 2.8125 -8.15625 C 2.28125 -8.40625 1.804688 -8.726562 1.390625 -9.125 C 0.984375 -9.519531 0.65625 -10.015625 0.40625 -10.609375 C 0.164062 -11.210938 0.046875 -11.925781 0.046875 -12.75 Z M 0.046875 -12.75 "/></g></g></g><g fill="#fffefe" fill-opacity="1"><g transform="translate(232.755964, 253.969631)"><g/></g></g><g fill="#fffefe" fill-opacity="1"><g transform="translate(246.400795, 253.969631)"><g><path d="M 14.84375 -21.71875 C 15.707031 -21.144531 16.410156 -20.207031 16.953125 -18.90625 C 17.503906 -17.613281 17.882812 -16.160156 18.09375 -14.546875 C 18.300781 -12.929688 18.316406 -11.269531 18.140625 -9.5625 C 17.960938 -7.863281 17.578125 -6.304688 16.984375 -4.890625 C 16.398438 -3.484375 15.59375 -2.320312 14.5625 -1.40625 C 13.539062 -0.5 12.28125 -0.046875 10.78125 -0.046875 C 10.175781 -0.046875 9.609375 -0.125 9.078125 -0.28125 C 8.546875 -0.445312 8.132812 -0.617188 7.84375 -0.796875 C 7.5625 -0.972656 7.441406 -1.144531 7.484375 -1.3125 C 7.523438 -1.476562 7.832031 -1.5625 8.40625 -1.5625 C 9.25 -1.5625 9.941406 -2.015625 10.484375 -2.921875 C 11.035156 -3.835938 11.453125 -4.976562 11.734375 -6.34375 C 12.023438 -7.71875 12.210938 -9.203125 12.296875 -10.796875 C 12.378906 -12.398438 12.390625 -13.882812 12.328125 -15.25 C 12.273438 -16.613281 12.15625 -17.753906 11.96875 -18.671875 C 11.78125 -19.585938 11.578125 -20.046875 11.359375 -20.046875 C 10.921875 -20.046875 10.488281 -19.773438 10.0625 -19.234375 C 9.632812 -18.703125 9.222656 -18.003906 8.828125 -17.140625 C 8.429688 -16.285156 8.046875 -15.316406 7.671875 -14.234375 C 7.304688 -13.160156 6.972656 -12.082031 6.671875 -11 C 6.378906 -9.925781 6.109375 -8.898438 5.859375 -7.921875 C 5.609375 -6.953125 5.414062 -6.140625 5.28125 -5.484375 C 5.195312 -3.441406 5.15625 -1.3125 5.15625 0.90625 C 5.15625 3.550781 5.304688 5.707031 5.609375 7.375 C 5.910156 9.039062 6.191406 10.34375 6.453125 11.28125 C 6.710938 12.226562 6.867188 12.875 6.921875 13.21875 C 6.984375 13.5625 6.753906 13.734375 6.234375 13.734375 C 5.191406 13.734375 4.296875 13.210938 3.546875 12.171875 C 2.796875 11.128906 2.179688 9.753906 1.703125 8.046875 C 1.222656 6.335938 0.851562 4.390625 0.59375 2.203125 C 0.332031 0.0234375 0.175781 -2.203125 0.125 -4.484375 C 0.0703125 -6.765625 0.09375 -9 0.1875 -11.1875 C 0.28125 -13.375 0.441406 -15.320312 0.671875 -17.03125 C 0.910156 -18.738281 1.1875 -20.109375 1.5 -21.140625 C 1.8125 -22.179688 2.160156 -22.703125 2.546875 -22.703125 C 2.921875 -22.703125 3.328125 -22.695312 3.765625 -22.6875 C 4.203125 -22.675781 4.597656 -22.613281 4.953125 -22.5 C 5.304688 -22.394531 5.597656 -22.222656 5.828125 -21.984375 C 6.066406 -21.753906 6.1875 -21.4375 6.1875 -21.03125 C 6.1875 -20.5625 6.125 -19.554688 6 -18.015625 C 5.875 -16.472656 5.742188 -14.550781 5.609375 -12.25 C 5.859375 -13.238281 6.117188 -14.226562 6.390625 -15.21875 C 6.660156 -16.21875 6.941406 -17.132812 7.234375 -17.96875 C 7.523438 -18.800781 7.8125 -19.53125 8.09375 -20.15625 C 8.382812 -20.789062 8.648438 -21.242188 8.890625 -21.515625 C 9.222656 -21.847656 9.695312 -22.066406 10.3125 -22.171875 C 10.925781 -22.285156 11.546875 -22.320312 12.171875 -22.28125 C 12.796875 -22.238281 13.359375 -22.15625 13.859375 -22.03125 C 14.367188 -21.90625 14.695312 -21.800781 14.84375 -21.71875 Z M 14.84375 -21.71875 "/></g></g></g><g fill="#fffefe" fill-opacity="1"><g transform="translate(268.322032, 253.969631)"><g><path d="M 9.21875 -21.765625 C 9.820312 -21.765625 10.382812 -21.613281 10.90625 -21.3125 C 11.425781 -21.007812 11.875 -20.515625 12.25 -19.828125 C 12.632812 -19.148438 12.941406 -18.269531 13.171875 -17.1875 C 13.410156 -16.113281 13.53125 -14.796875 13.53125 -13.234375 C 13.53125 -11.679688 13.390625 -10.101562 13.109375 -8.5 C 12.835938 -6.90625 12.398438 -5.460938 11.796875 -4.171875 C 11.203125 -2.890625 10.429688 -1.847656 9.484375 -1.046875 C 8.546875 -0.242188 7.40625 0.15625 6.0625 0.15625 C 4.863281 0.15625 3.875 -0.148438 3.09375 -0.765625 C 2.3125 -1.378906 1.695312 -2.15625 1.25 -3.09375 C 0.800781 -4.039062 0.492188 -5.078125 0.328125 -6.203125 C 0.160156 -7.335938 0.078125 -8.425781 0.078125 -9.46875 C 0.078125 -10.425781 0.128906 -11.414062 0.234375 -12.4375 C 0.347656 -13.457031 0.539062 -14.40625 0.8125 -15.28125 C 1.09375 -16.15625 1.476562 -16.90625 1.96875 -17.53125 C 2.457031 -18.164062 3.070312 -18.566406 3.8125 -18.734375 C 4.0625 -19.410156 4.390625 -19.953125 4.796875 -20.359375 C 5.203125 -20.773438 5.648438 -21.082031 6.140625 -21.28125 C 6.640625 -21.488281 7.15625 -21.617188 7.6875 -21.671875 C 8.21875 -21.734375 8.726562 -21.765625 9.21875 -21.765625 Z M 8.109375 -2.015625 C 8.546875 -2.015625 8.96875 -2.4375 9.375 -3.28125 C 9.789062 -4.125 10.148438 -5.1875 10.453125 -6.46875 C 10.753906 -7.757812 10.976562 -9.148438 11.125 -10.640625 C 11.28125 -12.128906 11.316406 -13.515625 11.234375 -14.796875 C 11.148438 -16.078125 10.929688 -17.140625 10.578125 -17.984375 C 10.222656 -18.835938 9.675781 -19.265625 8.9375 -19.265625 C 8.601562 -19.265625 8.367188 -19.03125 8.234375 -18.5625 C 8.097656 -18.101562 7.972656 -17.566406 7.859375 -16.953125 C 7.753906 -16.335938 7.617188 -15.710938 7.453125 -15.078125 C 7.296875 -14.453125 7.039062 -13.972656 6.6875 -13.640625 C 6.6875 -12.410156 6.644531 -11.113281 6.5625 -9.75 C 6.476562 -8.382812 6.441406 -7.128906 6.453125 -5.984375 C 6.460938 -4.835938 6.582031 -3.890625 6.8125 -3.140625 C 7.050781 -2.390625 7.484375 -2.015625 8.109375 -2.015625 Z M 8.109375 -2.015625 "/></g></g></g><g fill="#fffefe" fill-opacity="1"><g transform="translate(285.859224, 253.969631)"><g><path d="M 11.515625 -23.3125 C 12.085938 -23.3125 12.660156 -23.296875 13.234375 -23.265625 C 13.804688 -23.242188 14.332031 -23.140625 14.8125 -22.953125 C 15.289062 -22.765625 15.679688 -22.441406 15.984375 -21.984375 C 16.285156 -21.535156 16.4375 -20.890625 16.4375 -20.046875 C 16.4375 -19.191406 16.378906 -18.363281 16.265625 -17.5625 C 16.160156 -16.757812 15.988281 -16.050781 15.75 -15.4375 C 15.519531 -14.820312 15.21875 -14.320312 14.84375 -13.9375 C 14.476562 -13.550781 14.039062 -13.359375 13.53125 -13.359375 C 12.488281 -13.359375 11.625 -13.53125 10.9375 -13.875 C 10.257812 -14.21875 9.921875 -14.617188 9.921875 -15.078125 C 9.921875 -15.296875 9.953125 -15.648438 10.015625 -16.140625 C 10.085938 -16.640625 10.164062 -17.132812 10.25 -17.625 C 10.351562 -18.195312 10.472656 -18.828125 10.609375 -19.515625 C 9.710938 -17.679688 8.910156 -15.863281 8.203125 -14.0625 C 7.898438 -13.269531 7.597656 -12.445312 7.296875 -11.59375 C 6.992188 -10.75 6.71875 -9.898438 6.46875 -9.046875 C 6.226562 -8.203125 6.019531 -7.367188 5.84375 -6.546875 C 5.664062 -5.734375 5.5625 -4.957031 5.53125 -4.21875 C 5.644531 -3.476562 5.757812 -2.851562 5.875 -2.34375 C 6 -1.84375 6.113281 -1.425781 6.21875 -1.09375 C 6.332031 -0.769531 6.421875 -0.503906 6.484375 -0.296875 C 6.554688 -0.0976562 6.59375 0.0820312 6.59375 0.25 C 6.59375 0.4375 6.425781 0.617188 6.09375 0.796875 C 5.769531 0.972656 5.351562 1.023438 4.84375 0.953125 C 4.34375 0.890625 3.804688 0.648438 3.234375 0.234375 C 2.660156 -0.171875 2.117188 -0.867188 1.609375 -1.859375 C 1.109375 -2.859375 0.691406 -4.203125 0.359375 -5.890625 C 0.0351562 -7.585938 -0.125 -9.765625 -0.125 -12.421875 C -0.125 -13.453125 -0.0859375 -14.566406 -0.015625 -15.765625 C 0.046875 -16.972656 0.148438 -18.085938 0.296875 -19.109375 C 0.453125 -20.140625 0.648438 -20.992188 0.890625 -21.671875 C 1.140625 -22.359375 1.441406 -22.703125 1.796875 -22.703125 C 3.191406 -22.703125 4.207031 -22.394531 4.84375 -21.78125 C 5.488281 -21.164062 5.8125 -20.421875 5.8125 -19.546875 C 5.8125 -19.140625 5.769531 -18.695312 5.6875 -18.21875 C 5.613281 -17.738281 5.519531 -17.21875 5.40625 -16.65625 C 5.300781 -16.09375 5.207031 -15.484375 5.125 -14.828125 C 5.039062 -14.179688 5 -13.472656 5 -12.703125 C 5 -11.203125 5.039062 -9.878906 5.125 -8.734375 C 5.289062 -9.628906 5.519531 -10.609375 5.8125 -11.671875 C 6.113281 -12.742188 6.445312 -13.816406 6.8125 -14.890625 C 7.1875 -15.972656 7.582031 -17.019531 8 -18.03125 C 8.425781 -19.039062 8.84375 -19.9375 9.25 -20.71875 C 9.664062 -21.5 10.066406 -22.125 10.453125 -22.59375 C 10.835938 -23.070312 11.191406 -23.3125 11.515625 -23.3125 Z M 11.515625 -23.3125 "/></g></g></g><g fill="#fffefe" fill-opacity="1"><g transform="translate(304.338772, 253.969631)"><g/></g></g><g fill="#fffefe" fill-opacity="1"><g transform="translate(317.983613, 253.969631)"><g><path d="M 13.15625 -23 C 13.238281 -23.289062 13.519531 -23.347656 14 -23.171875 C 14.476562 -22.992188 14.945312 -22.578125 15.40625 -21.921875 C 15.875 -21.265625 16.207031 -20.347656 16.40625 -19.171875 C 16.613281 -18.003906 16.5 -16.5625 16.0625 -14.84375 C 15.601562 -13.113281 15.066406 -11.394531 14.453125 -9.6875 C 13.835938 -7.976562 13.253906 -6.441406 12.703125 -5.078125 C 12.046875 -3.460938 11.378906 -1.929688 10.703125 -0.484375 C 10.617188 -0.210938 10.445312 -0.0703125 10.1875 -0.0625 C 9.925781 -0.0507812 9.617188 -0.125 9.265625 -0.28125 C 9.179688 -0.144531 9.003906 -0.078125 8.734375 -0.078125 C 7.910156 -0.078125 6.992188 -0.515625 5.984375 -1.390625 C 4.972656 -2.265625 4.019531 -3.539062 3.125 -5.21875 C 2.238281 -6.90625 1.488281 -8.96875 0.875 -11.40625 C 0.257812 -13.851562 -0.046875 -16.648438 -0.046875 -19.796875 C -0.046875 -19.984375 -0.0625 -20.210938 -0.09375 -20.484375 C -0.132812 -20.765625 -0.132812 -21.023438 -0.09375 -21.265625 C -0.0625 -21.515625 0.0234375 -21.71875 0.171875 -21.875 C 0.328125 -22.039062 0.613281 -22.125 1.03125 -22.125 C 2.445312 -22.125 3.515625 -21.753906 4.234375 -21.015625 C 4.960938 -20.285156 5.328125 -19.398438 5.328125 -18.359375 C 5.328125 -15.492188 5.578125 -12.988281 6.078125 -10.84375 C 6.585938 -8.695312 7.117188 -6.875 7.671875 -5.375 C 7.960938 -6.101562 8.320312 -6.945312 8.75 -7.90625 C 9.175781 -8.863281 9.597656 -9.828125 10.015625 -10.796875 C 10.441406 -11.765625 10.828125 -12.691406 11.171875 -13.578125 C 11.515625 -14.472656 11.765625 -15.234375 11.921875 -15.859375 C 12.335938 -17.390625 12.617188 -18.5625 12.765625 -19.375 C 12.910156 -20.195312 13.003906 -20.828125 13.046875 -21.265625 C 13.085938 -21.703125 13.09375 -22.023438 13.0625 -22.234375 C 13.039062 -22.441406 13.070312 -22.695312 13.15625 -23 Z M 13.15625 -23 "/></g></g></g><g fill="#fffefe" fill-opacity="1"><g transform="translate(336.995828, 253.969631)"><g><path d="M 7.296875 -24.84375 C 7.296875 -24.207031 7.097656 -23.773438 6.703125 -23.546875 C 6.304688 -23.316406 5.8125 -23.21875 5.21875 -23.25 C 4.632812 -23.289062 3.992188 -23.4375 3.296875 -23.6875 C 2.597656 -23.9375 1.953125 -24.238281 1.359375 -24.59375 C 0.773438 -24.945312 0.285156 -25.320312 -0.109375 -25.71875 C -0.503906 -26.113281 -0.703125 -26.488281 -0.703125 -26.84375 C -0.703125 -27.363281 -0.597656 -27.757812 -0.390625 -28.03125 C -0.179688 -28.300781 0.0859375 -28.5 0.421875 -28.625 C 0.765625 -28.75 1.171875 -28.816406 1.640625 -28.828125 C 2.109375 -28.847656 2.597656 -28.859375 3.109375 -28.859375 C 3.609375 -28.859375 4.109375 -28.71875 4.609375 -28.4375 C 5.117188 -28.164062 5.570312 -27.820312 5.96875 -27.40625 C 6.363281 -27 6.679688 -26.5625 6.921875 -26.09375 C 7.171875 -25.632812 7.296875 -25.21875 7.296875 -24.84375 Z M 11.921875 -12.046875 C 12.003906 -12.296875 12.097656 -12.46875 12.203125 -12.5625 C 12.316406 -12.65625 12.425781 -12.679688 12.53125 -12.640625 C 12.644531 -12.597656 12.726562 -12.515625 12.78125 -12.390625 C 12.84375 -12.273438 12.859375 -12.132812 12.828125 -11.96875 C 12.742188 -11.632812 12.585938 -11.117188 12.359375 -10.421875 C 12.128906 -9.734375 11.84375 -8.957031 11.5 -8.09375 C 11.15625 -7.226562 10.769531 -6.335938 10.34375 -5.421875 C 9.925781 -4.515625 9.484375 -3.679688 9.015625 -2.921875 C 8.546875 -2.171875 8.066406 -1.554688 7.578125 -1.078125 C 7.085938 -0.609375 6.609375 -0.375 6.140625 -0.375 L 6.0625 -0.375 C 4.726562 -0.375 3.664062 -0.789062 2.875 -1.625 C 2.082031 -2.457031 1.476562 -3.472656 1.0625 -4.671875 C 0.65625 -5.867188 0.390625 -7.117188 0.265625 -8.421875 C 0.140625 -9.722656 0.078125 -10.847656 0.078125 -11.796875 C 0.078125 -12.972656 0.0976562 -13.984375 0.140625 -14.828125 C 0.179688 -15.679688 0.234375 -16.394531 0.296875 -16.96875 C 0.367188 -17.539062 0.425781 -18.007812 0.46875 -18.375 C 0.507812 -18.75 0.53125 -19.054688 0.53125 -19.296875 C 0.53125 -19.734375 0.796875 -19.988281 1.328125 -20.0625 C 1.859375 -20.132812 2.453125 -20.0625 3.109375 -19.84375 C 3.765625 -19.625 4.359375 -19.300781 4.890625 -18.875 C 5.429688 -18.445312 5.703125 -17.972656 5.703125 -17.453125 C 5.703125 -17.078125 5.6875 -16.65625 5.65625 -16.1875 C 5.625 -15.71875 5.59375 -15.222656 5.5625 -14.703125 C 5.539062 -14.191406 5.515625 -13.679688 5.484375 -13.171875 C 5.460938 -12.671875 5.453125 -12.203125 5.453125 -11.765625 C 5.453125 -9.546875 5.617188 -7.738281 5.953125 -6.34375 C 6.296875 -4.957031 6.648438 -3.867188 7.015625 -3.078125 C 7.285156 -3.210938 7.585938 -3.507812 7.921875 -3.96875 C 8.265625 -4.4375 8.613281 -4.96875 8.96875 -5.5625 C 9.332031 -6.164062 9.675781 -6.8125 10 -7.5 C 10.320312 -8.1875 10.617188 -8.835938 10.890625 -9.453125 C 11.171875 -10.066406 11.398438 -10.601562 11.578125 -11.0625 C 11.753906 -11.53125 11.867188 -11.859375 11.921875 -12.046875 Z M 11.921875 -12.046875 "/></g></g></g><g fill="#fffefe" fill-opacity="1"><g transform="translate(348.755937, 253.969631)"><g><path d="M 0.046875 -12.75 C 0.046875 -13.644531 0.25 -14.664062 0.65625 -15.8125 C 1.0625 -16.96875 1.578125 -18.054688 2.203125 -19.078125 C 2.835938 -20.097656 3.539062 -20.960938 4.3125 -21.671875 C 5.09375 -22.390625 5.851562 -22.75 6.59375 -22.75 C 7.332031 -22.75 8.125 -22.75 8.96875 -22.75 C 9.820312 -22.75 10.597656 -22.679688 11.296875 -22.546875 C 11.992188 -22.410156 12.570312 -22.140625 13.03125 -21.734375 C 13.5 -21.335938 13.734375 -20.757812 13.734375 -20 C 13.734375 -19.238281 13.519531 -18.445312 13.09375 -17.625 C 12.664062 -16.800781 12.1875 -16.046875 11.65625 -15.359375 C 11.125 -14.679688 10.601562 -14.125 10.09375 -13.6875 C 9.59375 -13.25 9.257812 -13.03125 9.09375 -13.03125 C 8.90625 -13.03125 8.851562 -13.332031 8.9375 -13.9375 C 9.019531 -14.539062 9.117188 -15.203125 9.234375 -15.921875 C 9.359375 -16.648438 9.460938 -17.3125 9.546875 -17.90625 C 9.628906 -18.507812 9.585938 -18.8125 9.421875 -18.8125 C 8.898438 -18.8125 8.394531 -18.613281 7.90625 -18.21875 C 7.414062 -17.820312 6.960938 -17.328125 6.546875 -16.734375 C 6.140625 -16.148438 5.800781 -15.507812 5.53125 -14.8125 C 5.257812 -14.113281 5.078125 -13.472656 4.984375 -12.890625 C 4.890625 -12.304688 4.898438 -11.8125 5.015625 -11.40625 C 5.140625 -11.007812 5.40625 -10.8125 5.8125 -10.8125 C 5.976562 -10.8125 6.28125 -10.804688 6.71875 -10.796875 C 7.15625 -10.785156 7.644531 -10.75 8.1875 -10.6875 C 8.738281 -10.632812 9.304688 -10.539062 9.890625 -10.40625 C 10.484375 -10.269531 11.019531 -10.070312 11.5 -9.8125 C 11.976562 -9.550781 12.375 -9.21875 12.6875 -8.8125 C 13 -8.40625 13.15625 -7.898438 13.15625 -7.296875 C 13.15625 -6.691406 12.988281 -6.035156 12.65625 -5.328125 C 12.332031 -4.617188 11.90625 -3.914062 11.375 -3.21875 C 10.84375 -2.519531 10.238281 -1.84375 9.5625 -1.1875 C 8.894531 -0.53125 8.226562 0.046875 7.5625 0.546875 C 6.894531 1.054688 6.257812 1.460938 5.65625 1.765625 C 5.050781 2.066406 4.546875 2.21875 4.140625 2.21875 C 3.535156 2.21875 2.992188 2.109375 2.515625 1.890625 C 2.035156 1.671875 1.648438 1.421875 1.359375 1.140625 C 1.078125 0.867188 0.914062 0.625 0.875 0.40625 C 0.832031 0.1875 0.953125 0.078125 1.234375 0.078125 C 1.554688 0.078125 1.96875 -0.0664062 2.46875 -0.359375 C 2.976562 -0.660156 3.515625 -1.050781 4.078125 -1.53125 C 4.640625 -2.007812 5.207031 -2.539062 5.78125 -3.125 C 6.351562 -3.71875 6.863281 -4.296875 7.3125 -4.859375 C 7.757812 -5.421875 8.128906 -5.929688 8.421875 -6.390625 C 8.710938 -6.859375 8.859375 -7.210938 8.859375 -7.453125 C 7.210938 -7.265625 5.734375 -7.320312 4.421875 -7.625 C 3.878906 -7.726562 3.34375 -7.90625 2.8125 -8.15625 C 2.28125 -8.40625 1.804688 -8.726562 1.390625 -9.125 C 0.984375 -9.519531 0.65625 -10.015625 0.40625 -10.609375 C 0.164062 -11.210938 0.046875 -11.925781 0.046875 -12.75 Z M 0.046875 -12.75 "/></g></g></g><g fill="#fffefe" fill-opacity="1"><g transform="translate(365.883419, 253.969631)"><g><path d="M 26.640625 -28.640625 C 27.242188 -28.617188 27.507812 -28.488281 27.4375 -28.25 C 27.375 -28.019531 27.082031 -27.828125 26.5625 -27.671875 C 25.738281 -27.421875 24.679688 -27.15625 23.390625 -26.875 C 22.109375 -26.601562 20.703125 -26.351562 19.171875 -26.125 C 17.648438 -25.894531 16.039062 -25.675781 14.34375 -25.46875 C 12.644531 -25.269531 10.960938 -25.097656 9.296875 -24.953125 C 9.054688 -23.503906 8.804688 -22.015625 8.546875 -20.484375 C 8.285156 -18.960938 8.050781 -17.46875 7.84375 -16 C 7.644531 -14.539062 7.472656 -13.15625 7.328125 -11.84375 C 7.191406 -10.53125 7.125 -9.367188 7.125 -8.359375 C 7.125 -6.554688 7.207031 -5.003906 7.375 -3.703125 C 7.539062 -2.410156 7.734375 -1.328125 7.953125 -0.453125 C 8.171875 0.421875 8.390625 1.117188 8.609375 1.640625 C 8.828125 2.160156 8.976562 2.550781 9.0625 2.8125 C 9.144531 3.070312 9.128906 3.238281 9.015625 3.3125 C 8.910156 3.394531 8.648438 3.4375 8.234375 3.4375 C 7.609375 3.4375 6.9375 3.144531 6.21875 2.5625 C 5.507812 1.976562 4.847656 1.109375 4.234375 -0.046875 C 3.617188 -1.210938 3.109375 -2.648438 2.703125 -4.359375 C 2.296875 -6.066406 2.09375 -8.039062 2.09375 -10.28125 C 2.09375 -12.382812 2.253906 -14.703125 2.578125 -17.234375 C 2.910156 -19.765625 3.28125 -22.242188 3.6875 -24.671875 C 2.726562 -24.640625 1.832031 -24.644531 1 -24.6875 C 0.164062 -24.726562 -0.601562 -24.789062 -1.3125 -24.875 C -2.320312 -24.988281 -3.265625 -25.1875 -4.140625 -25.46875 C -5.015625 -25.757812 -5.828125 -26.085938 -6.578125 -26.453125 C -7.328125 -26.828125 -8.007812 -27.210938 -8.625 -27.609375 C -9.238281 -28.003906 -9.804688 -28.378906 -10.328125 -28.734375 C -10.765625 -29.035156 -10.921875 -29.285156 -10.796875 -29.484375 C -10.671875 -29.691406 -10.460938 -29.769531 -10.171875 -29.71875 C -8.117188 -29.300781 -5.847656 -28.988281 -3.359375 -28.78125 C -0.867188 -28.582031 1.695312 -28.441406 4.34375 -28.359375 L 4.59375 -29.59375 C 4.894531 -31.226562 5.15625 -32.617188 5.375 -33.765625 C 5.59375 -34.921875 5.703125 -35.726562 5.703125 -36.1875 C 5.703125 -37.175781 5.957031 -37.785156 6.46875 -38.015625 C 6.988281 -38.242188 7.5625 -38.226562 8.1875 -37.96875 C 8.820312 -37.707031 9.398438 -37.253906 9.921875 -36.609375 C 10.441406 -35.972656 10.703125 -35.273438 10.703125 -34.515625 C 10.703125 -34.097656 10.644531 -33.476562 10.53125 -32.65625 C 10.425781 -31.84375 10.289062 -30.863281 10.125 -29.71875 L 9.875 -28.3125 C 11.625 -28.3125 13.332031 -28.332031 15 -28.375 C 16.664062 -28.414062 18.226562 -28.457031 19.6875 -28.5 C 21.15625 -28.539062 22.484375 -28.570312 23.671875 -28.59375 C 24.859375 -28.625 25.847656 -28.640625 26.640625 -28.640625 Z M 26.640625 -28.640625 "/></g></g></g><g fill="#fffefe" fill-opacity="1"><g transform="translate(378.954632, 253.969631)"><g><path d="M 23.4375 -14.84375 C 23.5 -15.0625 23.597656 -15.21875 23.734375 -15.3125 C 23.867188 -15.40625 23.992188 -15.441406 24.109375 -15.421875 C 24.234375 -15.410156 24.332031 -15.335938 24.40625 -15.203125 C 24.476562 -15.066406 24.484375 -14.875 24.421875 -14.625 C 24.398438 -14.46875 24.269531 -13.984375 24.03125 -13.171875 C 23.800781 -12.367188 23.492188 -11.398438 23.109375 -10.265625 C 22.734375 -9.128906 22.296875 -7.90625 21.796875 -6.59375 C 21.304688 -5.28125 20.78125 -4.050781 20.21875 -2.90625 C 19.664062 -1.757812 19.085938 -0.765625 18.484375 0.078125 C 17.878906 0.929688 17.289062 1.453125 16.71875 1.640625 C 16.582031 1.722656 16.363281 1.765625 16.0625 1.765625 C 15.40625 1.765625 14.835938 1.566406 14.359375 1.171875 C 13.878906 0.773438 13.457031 0.285156 13.09375 -0.296875 C 12.726562 -0.890625 12.421875 -1.535156 12.171875 -2.234375 C 11.921875 -2.929688 11.710938 -3.570312 11.546875 -4.15625 C 11.390625 -4.75 11.269531 -5.242188 11.1875 -5.640625 C 11.101562 -6.035156 11.035156 -6.234375 10.984375 -6.234375 C 10.929688 -6.234375 10.84375 -6.070312 10.71875 -5.75 C 10.59375 -5.4375 10.425781 -5.054688 10.21875 -4.609375 C 10.019531 -4.160156 9.78125 -3.660156 9.5 -3.109375 C 9.226562 -2.566406 8.914062 -2.066406 8.5625 -1.609375 C 8.207031 -1.160156 7.804688 -0.78125 7.359375 -0.46875 C 6.910156 -0.15625 6.410156 0 5.859375 0 C 5.035156 0 4.269531 -0.140625 3.5625 -0.421875 C 2.851562 -0.710938 2.234375 -1.171875 1.703125 -1.796875 C 1.171875 -2.429688 0.753906 -3.242188 0.453125 -4.234375 C 0.148438 -5.234375 0 -6.445312 0 -7.875 C 0 -9.207031 0.179688 -10.691406 0.546875 -12.328125 C 0.921875 -13.972656 1.484375 -15.507812 2.234375 -16.9375 C 2.984375 -18.375 3.914062 -19.578125 5.03125 -20.546875 C 6.15625 -21.523438 7.484375 -22.015625 9.015625 -22.015625 C 10.078125 -22.015625 11.046875 -21.976562 11.921875 -21.90625 C 12.796875 -21.832031 13.554688 -21.613281 14.203125 -21.25 C 14.847656 -20.882812 15.347656 -20.296875 15.703125 -19.484375 C 16.054688 -18.679688 16.234375 -17.53125 16.234375 -16.03125 C 16.234375 -15.882812 16.15625 -15.75 16 -15.625 C 15.851562 -15.507812 15.679688 -15.429688 15.484375 -15.390625 C 15.296875 -15.347656 15.125 -15.359375 14.96875 -15.421875 C 14.820312 -15.492188 14.75 -15.640625 14.75 -15.859375 C 14.75 -16.109375 14.726562 -16.460938 14.6875 -16.921875 C 14.644531 -17.390625 14.554688 -17.863281 14.421875 -18.34375 C 14.285156 -18.820312 14.101562 -19.238281 13.875 -19.59375 C 13.644531 -19.945312 13.335938 -20.125 12.953125 -20.125 C 11.941406 -20.125 10.976562 -19.707031 10.0625 -18.875 C 9.144531 -18.039062 8.335938 -16.925781 7.640625 -15.53125 C 6.941406 -14.132812 6.390625 -12.546875 5.984375 -10.765625 C 5.578125 -8.992188 5.375 -7.164062 5.375 -5.28125 C 5.375 -4.90625 5.382812 -4.484375 5.40625 -4.015625 C 5.4375 -3.546875 5.5 -3.113281 5.59375 -2.71875 C 5.6875 -2.320312 5.828125 -1.988281 6.015625 -1.71875 C 6.210938 -1.445312 6.460938 -1.3125 6.765625 -1.3125 C 6.953125 -1.3125 7.179688 -1.519531 7.453125 -1.9375 C 7.734375 -2.363281 8.015625 -2.914062 8.296875 -3.59375 C 8.585938 -4.28125 8.867188 -5.035156 9.140625 -5.859375 C 9.410156 -6.679688 9.648438 -7.488281 9.859375 -8.28125 C 10.066406 -9.070312 10.238281 -9.800781 10.375 -10.46875 C 10.507812 -11.132812 10.578125 -11.648438 10.578125 -12.015625 C 10.578125 -12.203125 10.585938 -12.429688 10.609375 -12.703125 C 10.640625 -12.972656 10.726562 -13.222656 10.875 -13.453125 C 11.03125 -13.691406 11.269531 -13.890625 11.59375 -14.046875 C 11.925781 -14.210938 12.40625 -14.296875 13.03125 -14.296875 C 14.289062 -14.296875 15.191406 -14.070312 15.734375 -13.625 C 16.285156 -13.175781 16.5625 -12.734375 16.5625 -12.296875 L 16.5625 -11.640625 C 16.582031 -10.929688 16.59375 -9.984375 16.59375 -8.796875 C 16.59375 -7.609375 16.625 -6.429688 16.6875 -5.265625 C 16.757812 -4.109375 16.878906 -3.101562 17.046875 -2.25 C 17.210938 -1.40625 17.457031 -0.984375 17.78125 -0.984375 C 17.914062 -0.984375 18.144531 -1.300781 18.46875 -1.9375 C 18.800781 -2.582031 19.164062 -3.390625 19.5625 -4.359375 C 19.96875 -5.328125 20.382812 -6.390625 20.8125 -7.546875 C 21.25 -8.710938 21.648438 -9.804688 22.015625 -10.828125 C 22.390625 -11.859375 22.707031 -12.742188 22.96875 -13.484375 C 23.226562 -14.222656 23.382812 -14.675781 23.4375 -14.84375 Z M 23.4375 -14.84375 "/></g></g></g><g fill="#fffefe" fill-opacity="1"><g transform="translate(170.343101, 304.834719)"><g><path d="M 17.34375 -12.421875 C 17.414062 -12.609375 17.503906 -12.734375 17.609375 -12.796875 C 17.722656 -12.867188 17.832031 -12.882812 17.9375 -12.84375 C 18.050781 -12.800781 18.132812 -12.710938 18.1875 -12.578125 C 18.25 -12.441406 18.238281 -12.265625 18.15625 -12.046875 C 18.101562 -11.910156 17.992188 -11.546875 17.828125 -10.953125 C 17.660156 -10.367188 17.421875 -9.675781 17.109375 -8.875 C 16.796875 -8.070312 16.398438 -7.21875 15.921875 -6.3125 C 15.441406 -5.40625 14.875 -4.566406 14.21875 -3.796875 C 13.5625 -3.035156 12.800781 -2.410156 11.9375 -1.921875 C 11.082031 -1.429688 10.125 -1.1875 9.0625 -1.1875 C 7.632812 -1.1875 6.351562 -1.472656 5.21875 -2.046875 C 4.09375 -2.617188 3.140625 -3.351562 2.359375 -4.25 C 1.578125 -5.15625 0.976562 -6.148438 0.5625 -7.234375 C 0.15625 -8.316406 -0.046875 -9.375 -0.046875 -10.40625 C -0.046875 -11.75 0.101562 -13.039062 0.40625 -14.28125 C 0.707031 -15.519531 1.078125 -16.660156 1.515625 -17.703125 C 1.953125 -18.742188 2.421875 -19.644531 2.921875 -20.40625 C 3.429688 -21.175781 3.890625 -21.75 4.296875 -22.125 C 4.710938 -22.488281 5.25 -22.757812 5.90625 -22.9375 C 6.5625 -23.113281 7.222656 -23.207031 7.890625 -23.21875 C 8.554688 -23.226562 9.191406 -23.191406 9.796875 -23.109375 C 10.398438 -23.035156 10.863281 -22.914062 11.1875 -22.75 C 11.8125 -22.445312 12.320312 -21.863281 12.71875 -21 C 13.113281 -20.144531 13.3125 -19.140625 13.3125 -17.984375 C 13.3125 -15.828125 12.859375 -14.195312 11.953125 -13.09375 C 11.054688 -11.988281 9.941406 -11.4375 8.609375 -11.4375 C 8.117188 -11.4375 7.601562 -11.488281 7.0625 -11.59375 C 6.53125 -11.707031 6.046875 -11.832031 5.609375 -11.96875 C 5.523438 -10.957031 5.609375 -9.957031 5.859375 -8.96875 C 6.109375 -7.988281 6.441406 -7.113281 6.859375 -6.34375 C 7.285156 -5.582031 7.78125 -4.960938 8.34375 -4.484375 C 8.90625 -4.003906 9.472656 -3.765625 10.046875 -3.765625 C 10.921875 -3.765625 11.695312 -3.960938 12.375 -4.359375 C 13.0625 -4.753906 13.671875 -5.253906 14.203125 -5.859375 C 14.734375 -6.460938 15.179688 -7.117188 15.546875 -7.828125 C 15.921875 -8.535156 16.238281 -9.207031 16.5 -9.84375 C 16.757812 -10.488281 16.945312 -11.050781 17.0625 -11.53125 C 17.1875 -12.007812 17.28125 -12.304688 17.34375 -12.421875 Z M 9.625 -19.671875 C 9.082031 -19.671875 8.59375 -19.476562 8.15625 -19.09375 C 7.71875 -18.71875 7.332031 -18.210938 7 -17.578125 C 6.675781 -16.953125 6.40625 -16.226562 6.1875 -15.40625 C 5.96875 -14.59375 5.804688 -13.734375 5.703125 -12.828125 C 6.578125 -12.441406 7.328125 -12.351562 7.953125 -12.5625 C 8.578125 -12.769531 9.09375 -13.125 9.5 -13.625 C 9.914062 -14.132812 10.21875 -14.734375 10.40625 -15.421875 C 10.601562 -16.117188 10.703125 -16.78125 10.703125 -17.40625 C 10.703125 -18.039062 10.613281 -18.578125 10.4375 -19.015625 C 10.257812 -19.453125 9.988281 -19.671875 9.625 -19.671875 Z M 9.625 -19.671875 "/></g></g></g><g fill="#fffefe" fill-opacity="1"><g transform="translate(187.470574, 304.834719)"><g><path d="M 0.046875 -12.75 C 0.046875 -13.644531 0.25 -14.664062 0.65625 -15.8125 C 1.0625 -16.96875 1.578125 -18.054688 2.203125 -19.078125 C 2.835938 -20.097656 3.539062 -20.960938 4.3125 -21.671875 C 5.09375 -22.390625 5.851562 -22.75 6.59375 -22.75 C 7.332031 -22.75 8.125 -22.75 8.96875 -22.75 C 9.820312 -22.75 10.597656 -22.679688 11.296875 -22.546875 C 11.992188 -22.410156 12.570312 -22.140625 13.03125 -21.734375 C 13.5 -21.335938 13.734375 -20.757812 13.734375 -20 C 13.734375 -19.238281 13.519531 -18.445312 13.09375 -17.625 C 12.664062 -16.800781 12.1875 -16.046875 11.65625 -15.359375 C 11.125 -14.679688 10.601562 -14.125 10.09375 -13.6875 C 9.59375 -13.25 9.257812 -13.03125 9.09375 -13.03125 C 8.90625 -13.03125 8.851562 -13.332031 8.9375 -13.9375 C 9.019531 -14.539062 9.117188 -15.203125 9.234375 -15.921875 C 9.359375 -16.648438 9.460938 -17.3125 9.546875 -17.90625 C 9.628906 -18.507812 9.585938 -18.8125 9.421875 -18.8125 C 8.898438 -18.8125 8.394531 -18.613281 7.90625 -18.21875 C 7.414062 -17.820312 6.960938 -17.328125 6.546875 -16.734375 C 6.140625 -16.148438 5.800781 -15.507812 5.53125 -14.8125 C 5.257812 -14.113281 5.078125 -13.472656 4.984375 -12.890625 C 4.890625 -12.304688 4.898438 -11.8125 5.015625 -11.40625 C 5.140625 -11.007812 5.40625 -10.8125 5.8125 -10.8125 C 5.976562 -10.8125 6.28125 -10.804688 6.71875 -10.796875 C 7.15625 -10.785156 7.644531 -10.75 8.1875 -10.6875 C 8.738281 -10.632812 9.304688 -10.539062 9.890625 -10.40625 C 10.484375 -10.269531 11.019531 -10.070312 11.5 -9.8125 C 11.976562 -9.550781 12.375 -9.21875 12.6875 -8.8125 C 13 -8.40625 13.15625 -7.898438 13.15625 -7.296875 C 13.15625 -6.691406 12.988281 -6.035156 12.65625 -5.328125 C 12.332031 -4.617188 11.90625 -3.914062 11.375 -3.21875 C 10.84375 -2.519531 10.238281 -1.84375 9.5625 -1.1875 C 8.894531 -0.53125 8.226562 0.046875 7.5625 0.546875 C 6.894531 1.054688 6.257812 1.460938 5.65625 1.765625 C 5.050781 2.066406 4.546875 2.21875 4.140625 2.21875 C 3.535156 2.21875 2.992188 2.109375 2.515625 1.890625 C 2.035156 1.671875 1.648438 1.421875 1.359375 1.140625 C 1.078125 0.867188 0.914062 0.625 0.875 0.40625 C 0.832031 0.1875 0.953125 0.078125 1.234375 0.078125 C 1.554688 0.078125 1.96875 -0.0664062 2.46875 -0.359375 C 2.976562 -0.660156 3.515625 -1.050781 4.078125 -1.53125 C 4.640625 -2.007812 5.207031 -2.539062 5.78125 -3.125 C 6.351562 -3.71875 6.863281 -4.296875 7.3125 -4.859375 C 7.757812 -5.421875 8.128906 -5.929688 8.421875 -6.390625 C 8.710938 -6.859375 8.859375 -7.210938 8.859375 -7.453125 C 7.210938 -7.265625 5.734375 -7.320312 4.421875 -7.625 C 3.878906 -7.726562 3.34375 -7.90625 2.8125 -8.15625 C 2.28125 -8.40625 1.804688 -8.726562 1.390625 -9.125 C 0.984375 -9.519531 0.65625 -10.015625 0.40625 -10.609375 C 0.164062 -11.210938 0.046875 -11.925781 0.046875 -12.75 Z M 0.046875 -12.75 "/></g></g></g><g fill="#fffefe" fill-opacity="1"><g transform="translate(204.598047, 304.834719)"><g/></g></g><g fill="#fffefe" fill-opacity="1"><g transform="translate(218.242881, 304.834719)"><g><path d="M 14.84375 -21.71875 C 15.707031 -21.144531 16.410156 -20.207031 16.953125 -18.90625 C 17.503906 -17.613281 17.882812 -16.160156 18.09375 -14.546875 C 18.300781 -12.929688 18.316406 -11.269531 18.140625 -9.5625 C 17.960938 -7.863281 17.578125 -6.304688 16.984375 -4.890625 C 16.398438 -3.484375 15.59375 -2.320312 14.5625 -1.40625 C 13.539062 -0.5 12.28125 -0.046875 10.78125 -0.046875 C 10.175781 -0.046875 9.609375 -0.125 9.078125 -0.28125 C 8.546875 -0.445312 8.132812 -0.617188 7.84375 -0.796875 C 7.5625 -0.972656 7.441406 -1.144531 7.484375 -1.3125 C 7.523438 -1.476562 7.832031 -1.5625 8.40625 -1.5625 C 9.25 -1.5625 9.941406 -2.015625 10.484375 -2.921875 C 11.035156 -3.835938 11.453125 -4.976562 11.734375 -6.34375 C 12.023438 -7.71875 12.210938 -9.203125 12.296875 -10.796875 C 12.378906 -12.398438 12.390625 -13.882812 12.328125 -15.25 C 12.273438 -16.613281 12.15625 -17.753906 11.96875 -18.671875 C 11.78125 -19.585938 11.578125 -20.046875 11.359375 -20.046875 C 10.921875 -20.046875 10.488281 -19.773438 10.0625 -19.234375 C 9.632812 -18.703125 9.222656 -18.003906 8.828125 -17.140625 C 8.429688 -16.285156 8.046875 -15.316406 7.671875 -14.234375 C 7.304688 -13.160156 6.972656 -12.082031 6.671875 -11 C 6.378906 -9.925781 6.109375 -8.898438 5.859375 -7.921875 C 5.609375 -6.953125 5.414062 -6.140625 5.28125 -5.484375 C 5.195312 -3.441406 5.15625 -1.3125 5.15625 0.90625 C 5.15625 3.550781 5.304688 5.707031 5.609375 7.375 C 5.910156 9.039062 6.191406 10.34375 6.453125 11.28125 C 6.710938 12.226562 6.867188 12.875 6.921875 13.21875 C 6.984375 13.5625 6.753906 13.734375 6.234375 13.734375 C 5.191406 13.734375 4.296875 13.210938 3.546875 12.171875 C 2.796875 11.128906 2.179688 9.753906 1.703125 8.046875 C 1.222656 6.335938 0.851562 4.390625 0.59375 2.203125 C 0.332031 0.0234375 0.175781 -2.203125 0.125 -4.484375 C 0.0703125 -6.765625 0.09375 -9 0.1875 -11.1875 C 0.28125 -13.375 0.441406 -15.320312 0.671875 -17.03125 C 0.910156 -18.738281 1.1875 -20.109375 1.5 -21.140625 C 1.8125 -22.179688 2.160156 -22.703125 2.546875 -22.703125 C 2.921875 -22.703125 3.328125 -22.695312 3.765625 -22.6875 C 4.203125 -22.675781 4.597656 -22.613281 4.953125 -22.5 C 5.304688 -22.394531 5.597656 -22.222656 5.828125 -21.984375 C 6.066406 -21.753906 6.1875 -21.4375 6.1875 -21.03125 C 6.1875 -20.5625 6.125 -19.554688 6 -18.015625 C 5.875 -16.472656 5.742188 -14.550781 5.609375 -12.25 C 5.859375 -13.238281 6.117188 -14.226562 6.390625 -15.21875 C 6.660156 -16.21875 6.941406 -17.132812 7.234375 -17.96875 C 7.523438 -18.800781 7.8125 -19.53125 8.09375 -20.15625 C 8.382812 -20.789062 8.648438 -21.242188 8.890625 -21.515625 C 9.222656 -21.847656 9.695312 -22.066406 10.3125 -22.171875 C 10.925781 -22.285156 11.546875 -22.320312 12.171875 -22.28125 C 12.796875 -22.238281 13.359375 -22.15625 13.859375 -22.03125 C 14.367188 -21.90625 14.695312 -21.800781 14.84375 -21.71875 Z M 14.84375 -21.71875 "/></g></g></g><g fill="#fffefe" fill-opacity="1"><g transform="translate(240.164118, 304.834719)"><g><path d="M 9.21875 -21.765625 C 9.820312 -21.765625 10.382812 -21.613281 10.90625 -21.3125 C 11.425781 -21.007812 11.875 -20.515625 12.25 -19.828125 C 12.632812 -19.148438 12.941406 -18.269531 13.171875 -17.1875 C 13.410156 -16.113281 13.53125 -14.796875 13.53125 -13.234375 C 13.53125 -11.679688 13.390625 -10.101562 13.109375 -8.5 C 12.835938 -6.90625 12.398438 -5.460938 11.796875 -4.171875 C 11.203125 -2.890625 10.429688 -1.847656 9.484375 -1.046875 C 8.546875 -0.242188 7.40625 0.15625 6.0625 0.15625 C 4.863281 0.15625 3.875 -0.148438 3.09375 -0.765625 C 2.3125 -1.378906 1.695312 -2.15625 1.25 -3.09375 C 0.800781 -4.039062 0.492188 -5.078125 0.328125 -6.203125 C 0.160156 -7.335938 0.078125 -8.425781 0.078125 -9.46875 C 0.078125 -10.425781 0.128906 -11.414062 0.234375 -12.4375 C 0.347656 -13.457031 0.539062 -14.40625 0.8125 -15.28125 C 1.09375 -16.15625 1.476562 -16.90625 1.96875 -17.53125 C 2.457031 -18.164062 3.070312 -18.566406 3.8125 -18.734375 C 4.0625 -19.410156 4.390625 -19.953125 4.796875 -20.359375 C 5.203125 -20.773438 5.648438 -21.082031 6.140625 -21.28125 C 6.640625 -21.488281 7.15625 -21.617188 7.6875 -21.671875 C 8.21875 -21.734375 8.726562 -21.765625 9.21875 -21.765625 Z M 8.109375 -2.015625 C 8.546875 -2.015625 8.96875 -2.4375 9.375 -3.28125 C 9.789062 -4.125 10.148438 -5.1875 10.453125 -6.46875 C 10.753906 -7.757812 10.976562 -9.148438 11.125 -10.640625 C 11.28125 -12.128906 11.316406 -13.515625 11.234375 -14.796875 C 11.148438 -16.078125 10.929688 -17.140625 10.578125 -17.984375 C 10.222656 -18.835938 9.675781 -19.265625 8.9375 -19.265625 C 8.601562 -19.265625 8.367188 -19.03125 8.234375 -18.5625 C 8.097656 -18.101562 7.972656 -17.566406 7.859375 -16.953125 C 7.753906 -16.335938 7.617188 -15.710938 7.453125 -15.078125 C 7.296875 -14.453125 7.039062 -13.972656 6.6875 -13.640625 C 6.6875 -12.410156 6.644531 -11.113281 6.5625 -9.75 C 6.476562 -8.382812 6.441406 -7.128906 6.453125 -5.984375 C 6.460938 -4.835938 6.582031 -3.890625 6.8125 -3.140625 C 7.050781 -2.390625 7.484375 -2.015625 8.109375 -2.015625 Z M 8.109375 -2.015625 "/></g></g></g><g fill="#fffefe" fill-opacity="1"><g transform="translate(257.701315, 304.834719)"><g><path d="M 11.515625 -23.3125 C 12.085938 -23.3125 12.660156 -23.296875 13.234375 -23.265625 C 13.804688 -23.242188 14.332031 -23.140625 14.8125 -22.953125 C 15.289062 -22.765625 15.679688 -22.441406 15.984375 -21.984375 C 16.285156 -21.535156 16.4375 -20.890625 16.4375 -20.046875 C 16.4375 -19.191406 16.378906 -18.363281 16.265625 -17.5625 C 16.160156 -16.757812 15.988281 -16.050781 15.75 -15.4375 C 15.519531 -14.820312 15.21875 -14.320312 14.84375 -13.9375 C 14.476562 -13.550781 14.039062 -13.359375 13.53125 -13.359375 C 12.488281 -13.359375 11.625 -13.53125 10.9375 -13.875 C 10.257812 -14.21875 9.921875 -14.617188 9.921875 -15.078125 C 9.921875 -15.296875 9.953125 -15.648438 10.015625 -16.140625 C 10.085938 -16.640625 10.164062 -17.132812 10.25 -17.625 C 10.351562 -18.195312 10.472656 -18.828125 10.609375 -19.515625 C 9.710938 -17.679688 8.910156 -15.863281 8.203125 -14.0625 C 7.898438 -13.269531 7.597656 -12.445312 7.296875 -11.59375 C 6.992188 -10.75 6.71875 -9.898438 6.46875 -9.046875 C 6.226562 -8.203125 6.019531 -7.367188 5.84375 -6.546875 C 5.664062 -5.734375 5.5625 -4.957031 5.53125 -4.21875 C 5.644531 -3.476562 5.757812 -2.851562 5.875 -2.34375 C 6 -1.84375 6.113281 -1.425781 6.21875 -1.09375 C 6.332031 -0.769531 6.421875 -0.503906 6.484375 -0.296875 C 6.554688 -0.0976562 6.59375 0.0820312 6.59375 0.25 C 6.59375 0.4375 6.425781 0.617188 6.09375 0.796875 C 5.769531 0.972656 5.351562 1.023438 4.84375 0.953125 C 4.34375 0.890625 3.804688 0.648438 3.234375 0.234375 C 2.660156 -0.171875 2.117188 -0.867188 1.609375 -1.859375 C 1.109375 -2.859375 0.691406 -4.203125 0.359375 -5.890625 C 0.0351562 -7.585938 -0.125 -9.765625 -0.125 -12.421875 C -0.125 -13.453125 -0.0859375 -14.566406 -0.015625 -15.765625 C 0.046875 -16.972656 0.148438 -18.085938 0.296875 -19.109375 C 0.453125 -20.140625 0.648438 -20.992188 0.890625 -21.671875 C 1.140625 -22.359375 1.441406 -22.703125 1.796875 -22.703125 C 3.191406 -22.703125 4.207031 -22.394531 4.84375 -21.78125 C 5.488281 -21.164062 5.8125 -20.421875 5.8125 -19.546875 C 5.8125 -19.140625 5.769531 -18.695312 5.6875 -18.21875 C 5.613281 -17.738281 5.519531 -17.21875 5.40625 -16.65625 C 5.300781 -16.09375 5.207031 -15.484375 5.125 -14.828125 C 5.039062 -14.179688 5 -13.472656 5 -12.703125 C 5 -11.203125 5.039062 -9.878906 5.125 -8.734375 C 5.289062 -9.628906 5.519531 -10.609375 5.8125 -11.671875 C 6.113281 -12.742188 6.445312 -13.816406 6.8125 -14.890625 C 7.1875 -15.972656 7.582031 -17.019531 8 -18.03125 C 8.425781 -19.039062 8.84375 -19.9375 9.25 -20.71875 C 9.664062 -21.5 10.066406 -22.125 10.453125 -22.59375 C 10.835938 -23.070312 11.191406 -23.3125 11.515625 -23.3125 Z M 11.515625 -23.3125 "/></g></g></g><g fill="#fffefe" fill-opacity="1"><g transform="translate(276.172602, 304.834719)"><g/></g></g><g fill="#fffefe" fill-opacity="1"><g transform="translate(289.817434, 304.834719)"><g/></g></g><g fill="#fffefe" fill-opacity="1"><g transform="translate(303.445659, 304.834719)"><g><path d="M 33.28125 -43.859375 C 33.957031 -43.859375 34.609375 -43.691406 35.234375 -43.359375 C 35.867188 -43.035156 36.429688 -42.640625 36.921875 -42.171875 C 37.421875 -41.703125 37.8125 -41.210938 38.09375 -40.703125 C 38.382812 -40.203125 38.53125 -39.789062 38.53125 -39.46875 C 38.53125 -39.132812 38.425781 -38.925781 38.21875 -38.84375 C 38.007812 -38.769531 37.726562 -38.753906 37.375 -38.796875 C 37.019531 -38.835938 36.597656 -38.90625 36.109375 -39 C 35.617188 -39.09375 35.085938 -39.140625 34.515625 -39.140625 C 33.253906 -39.140625 31.703125 -39.015625 29.859375 -38.765625 C 28.015625 -38.523438 25.992188 -38.175781 23.796875 -37.71875 C 21.597656 -37.269531 19.285156 -36.738281 16.859375 -36.125 C 14.441406 -35.507812 12.03125 -34.832031 9.625 -34.09375 L 9.625 -34.015625 C 9.625 -33.710938 9.5 -33.066406 9.25 -32.078125 C 9.007812 -31.097656 8.726562 -29.875 8.40625 -28.40625 C 9.332031 -28.707031 10.242188 -28.984375 11.140625 -29.234375 C 12.046875 -29.492188 12.878906 -29.710938 13.640625 -29.890625 C 14.410156 -30.078125 15.09375 -30.21875 15.6875 -30.3125 C 16.289062 -30.40625 16.785156 -30.453125 17.171875 -30.453125 C 17.503906 -30.421875 17.816406 -30.320312 18.109375 -30.15625 C 18.410156 -30 18.679688 -29.8125 18.921875 -29.59375 C 19.171875 -29.375 19.367188 -29.132812 19.515625 -28.875 C 19.671875 -28.613281 19.75 -28.359375 19.75 -28.109375 C 19.75 -27.890625 19.664062 -27.742188 19.5 -27.671875 C 19.34375 -27.609375 19.144531 -27.578125 18.90625 -27.578125 C 18.675781 -27.578125 18.414062 -27.601562 18.125 -27.65625 C 17.84375 -27.71875 17.582031 -27.75 17.34375 -27.75 C 16.875 -27.75 16.289062 -27.648438 15.59375 -27.453125 C 14.894531 -27.265625 14.113281 -27 13.25 -26.65625 C 12.394531 -26.3125 11.484375 -25.921875 10.515625 -25.484375 C 9.546875 -25.054688 8.582031 -24.609375 7.625 -24.140625 C 7.40625 -22.796875 7.226562 -21.378906 7.09375 -19.890625 C 6.957031 -18.410156 6.890625 -16.875 6.890625 -15.28125 C 6.890625 -12.9375 7.003906 -10.820312 7.234375 -8.9375 C 7.460938 -7.050781 7.71875 -5.4375 8 -4.09375 C 8.289062 -2.757812 8.5625 -1.71875 8.8125 -0.96875 C 9.0625 -0.21875 9.1875 0.1875 9.1875 0.25 C 9.1875 0.382812 8.984375 0.53125 8.578125 0.6875 C 8.179688 0.851562 7.78125 0.9375 7.375 0.9375 C 6.5 0.9375 5.71875 0.597656 5.03125 -0.078125 C 4.351562 -0.765625 3.757812 -1.640625 3.25 -2.703125 C 2.75 -3.765625 2.328125 -4.953125 1.984375 -6.265625 C 1.640625 -7.578125 1.363281 -8.867188 1.15625 -10.140625 C 0.957031 -11.410156 0.816406 -12.59375 0.734375 -13.6875 C 0.648438 -14.78125 0.609375 -15.640625 0.609375 -16.265625 C 0.609375 -17.828125 0.648438 -19.304688 0.734375 -20.703125 C 0.191406 -20.421875 -0.253906 -20.207031 -0.609375 -20.0625 C -0.960938 -19.914062 -1.210938 -19.84375 -1.359375 -19.84375 C -1.597656 -19.84375 -1.867188 -19.921875 -2.171875 -20.078125 C -2.472656 -20.242188 -2.742188 -20.441406 -2.984375 -20.671875 C -3.234375 -20.910156 -3.441406 -21.171875 -3.609375 -21.453125 C -3.773438 -21.742188 -3.859375 -22.023438 -3.859375 -22.296875 C -3.859375 -22.703125 -3.382812 -23.207031 -2.4375 -23.8125 C -1.5 -24.414062 -0.289062 -25.03125 1.1875 -25.65625 C 1.351562 -26.914062 1.546875 -28.054688 1.765625 -29.078125 C 1.984375 -30.097656 2.210938 -30.976562 2.453125 -31.71875 C 0.296875 -30.925781 -1.710938 -30.109375 -3.578125 -29.265625 C -5.453125 -28.421875 -7.085938 -27.566406 -8.484375 -26.703125 C -9.878906 -25.835938 -10.972656 -24.984375 -11.765625 -24.140625 C -12.554688 -23.296875 -12.953125 -22.488281 -12.953125 -21.71875 C -12.953125 -21.476562 -13.007812 -21.265625 -13.125 -21.078125 C -13.25 -20.898438 -13.382812 -20.785156 -13.53125 -20.734375 C -13.6875 -20.679688 -13.828125 -20.703125 -13.953125 -20.796875 C -14.078125 -20.890625 -14.140625 -21.085938 -14.140625 -21.390625 C -14.140625 -22.972656 -13.613281 -24.507812 -12.5625 -26 C -11.507812 -27.488281 -10.09375 -28.910156 -8.3125 -30.265625 C -6.539062 -31.617188 -4.476562 -32.890625 -2.125 -34.078125 C 0.21875 -35.265625 2.703125 -36.363281 5.328125 -37.375 C 7.953125 -38.382812 10.613281 -39.289062 13.3125 -40.09375 C 16.019531 -40.90625 18.617188 -41.582031 21.109375 -42.125 C 23.597656 -42.675781 25.890625 -43.101562 27.984375 -43.40625 C 30.085938 -43.707031 31.851562 -43.859375 33.28125 -43.859375 Z M 33.28125 -43.859375 "/></g></g></g><g fill="#fffefe" fill-opacity="1"><g transform="translate(319.221035, 304.834719)"><g><path d="M 17.34375 -12.421875 C 17.414062 -12.609375 17.503906 -12.734375 17.609375 -12.796875 C 17.722656 -12.867188 17.832031 -12.882812 17.9375 -12.84375 C 18.050781 -12.800781 18.132812 -12.710938 18.1875 -12.578125 C 18.25 -12.441406 18.238281 -12.265625 18.15625 -12.046875 C 18.101562 -11.910156 17.992188 -11.546875 17.828125 -10.953125 C 17.660156 -10.367188 17.421875 -9.675781 17.109375 -8.875 C 16.796875 -8.070312 16.398438 -7.21875 15.921875 -6.3125 C 15.441406 -5.40625 14.875 -4.566406 14.21875 -3.796875 C 13.5625 -3.035156 12.800781 -2.410156 11.9375 -1.921875 C 11.082031 -1.429688 10.125 -1.1875 9.0625 -1.1875 C 7.632812 -1.1875 6.351562 -1.472656 5.21875 -2.046875 C 4.09375 -2.617188 3.140625 -3.351562 2.359375 -4.25 C 1.578125 -5.15625 0.976562 -6.148438 0.5625 -7.234375 C 0.15625 -8.316406 -0.046875 -9.375 -0.046875 -10.40625 C -0.046875 -11.75 0.101562 -13.039062 0.40625 -14.28125 C 0.707031 -15.519531 1.078125 -16.660156 1.515625 -17.703125 C 1.953125 -18.742188 2.421875 -19.644531 2.921875 -20.40625 C 3.429688 -21.175781 3.890625 -21.75 4.296875 -22.125 C 4.710938 -22.488281 5.25 -22.757812 5.90625 -22.9375 C 6.5625 -23.113281 7.222656 -23.207031 7.890625 -23.21875 C 8.554688 -23.226562 9.191406 -23.191406 9.796875 -23.109375 C 10.398438 -23.035156 10.863281 -22.914062 11.1875 -22.75 C 11.8125 -22.445312 12.320312 -21.863281 12.71875 -21 C 13.113281 -20.144531 13.3125 -19.140625 13.3125 -17.984375 C 13.3125 -15.828125 12.859375 -14.195312 11.953125 -13.09375 C 11.054688 -11.988281 9.941406 -11.4375 8.609375 -11.4375 C 8.117188 -11.4375 7.601562 -11.488281 7.0625 -11.59375 C 6.53125 -11.707031 6.046875 -11.832031 5.609375 -11.96875 C 5.523438 -10.957031 5.609375 -9.957031 5.859375 -8.96875 C 6.109375 -7.988281 6.441406 -7.113281 6.859375 -6.34375 C 7.285156 -5.582031 7.78125 -4.960938 8.34375 -4.484375 C 8.90625 -4.003906 9.472656 -3.765625 10.046875 -3.765625 C 10.921875 -3.765625 11.695312 -3.960938 12.375 -4.359375 C 13.0625 -4.753906 13.671875 -5.253906 14.203125 -5.859375 C 14.734375 -6.460938 15.179688 -7.117188 15.546875 -7.828125 C 15.921875 -8.535156 16.238281 -9.207031 16.5 -9.84375 C 16.757812 -10.488281 16.945312 -11.050781 17.0625 -11.53125 C 17.1875 -12.007812 17.28125 -12.304688 17.34375 -12.421875 Z M 9.625 -19.671875 C 9.082031 -19.671875 8.59375 -19.476562 8.15625 -19.09375 C 7.71875 -18.71875 7.332031 -18.210938 7 -17.578125 C 6.675781 -16.953125 6.40625 -16.226562 6.1875 -15.40625 C 5.96875 -14.59375 5.804688 -13.734375 5.703125 -12.828125 C 6.578125 -12.441406 7.328125 -12.351562 7.953125 -12.5625 C 8.578125 -12.769531 9.09375 -13.125 9.5 -13.625 C 9.914062 -14.132812 10.21875 -14.734375 10.40625 -15.421875 C 10.601562 -16.117188 10.703125 -16.78125 10.703125 -17.40625 C 10.703125 -18.039062 10.613281 -18.578125 10.4375 -19.015625 C 10.257812 -19.453125 9.988281 -19.671875 9.625 -19.671875 Z M 13.15625 -29.390625 C 13.1875 -29.273438 13.070312 -29.066406 12.8125 -28.765625 C 12.550781 -28.460938 12.1875 -28.128906 11.71875 -27.765625 C 11.257812 -27.398438 10.734375 -27.03125 10.140625 -26.65625 C 9.554688 -26.289062 8.976562 -26.007812 8.40625 -25.8125 C 7.53125 -25.519531 6.722656 -25.363281 5.984375 -25.34375 C 5.242188 -25.332031 4.601562 -25.410156 4.0625 -25.578125 C 3.539062 -25.734375 3.335938 -26.007812 3.453125 -26.40625 C 3.578125 -26.8125 4.203125 -27.203125 5.328125 -27.578125 C 5.898438 -27.773438 6.4375 -28.054688 6.9375 -28.421875 C 7.445312 -28.785156 7.90625 -29.160156 8.3125 -29.546875 C 8.726562 -29.929688 9.09375 -30.28125 9.40625 -30.59375 C 9.71875 -30.90625 9.972656 -31.085938 10.171875 -31.140625 C 10.359375 -31.222656 10.601562 -31.222656 10.90625 -31.140625 C 11.207031 -31.066406 11.503906 -30.941406 11.796875 -30.765625 C 12.097656 -30.585938 12.367188 -30.375 12.609375 -30.125 C 12.859375 -29.875 13.039062 -29.628906 13.15625 -29.390625 Z M 13.15625 -29.390625 "/></g></g></g><g fill="#fffefe" fill-opacity="1"><g transform="translate(336.348509, 304.834719)"><g><path d="M 2.296875 -29.515625 C 2.296875 -29.953125 2.28125 -30.398438 2.25 -30.859375 C 2.226562 -31.328125 2.207031 -31.78125 2.1875 -32.21875 C 2.175781 -32.65625 2.15625 -33.035156 2.125 -33.359375 C 2.101562 -33.691406 2.09375 -33.925781 2.09375 -34.0625 C 2.09375 -34.25 2.164062 -34.472656 2.3125 -34.734375 C 2.46875 -34.992188 2.664062 -35.234375 2.90625 -35.453125 C 3.15625 -35.671875 3.429688 -35.847656 3.734375 -35.984375 C 4.035156 -36.117188 4.347656 -36.1875 4.671875 -36.1875 C 5.296875 -36.1875 5.660156 -36.085938 5.765625 -35.890625 C 5.878906 -35.703125 5.9375 -35.460938 5.9375 -35.171875 C 5.9375 -34.179688 5.957031 -33.078125 6 -31.859375 C 6.039062 -30.648438 5.984375 -29.519531 5.828125 -28.46875 C 5.679688 -27.414062 5.367188 -26.53125 4.890625 -25.8125 C 4.421875 -25.101562 3.675781 -24.75 2.65625 -24.75 C 2.28125 -24.75 2.050781 -24.820312 1.96875 -24.96875 C 1.882812 -25.125 1.867188 -25.382812 1.921875 -25.75 C 1.984375 -26.125 2.0625 -26.617188 2.15625 -27.234375 C 2.25 -27.847656 2.296875 -28.609375 2.296875 -29.515625 Z M 8.640625 -29.515625 C 8.640625 -29.953125 8.625 -30.398438 8.59375 -30.859375 C 8.570312 -31.328125 8.554688 -31.78125 8.546875 -32.21875 C 8.535156 -32.65625 8.515625 -33.035156 8.484375 -33.359375 C 8.453125 -33.691406 8.4375 -33.925781 8.4375 -34.0625 C 8.46875 -34.46875 8.75 -34.878906 9.28125 -35.296875 C 9.8125 -35.722656 10.429688 -35.9375 11.140625 -35.9375 C 11.472656 -35.9375 11.75 -35.738281 11.96875 -35.34375 C 12.1875 -34.945312 12.296875 -34.597656 12.296875 -34.296875 C 12.296875 -33.316406 12.273438 -32.253906 12.234375 -31.109375 C 12.191406 -29.960938 12.066406 -28.910156 11.859375 -27.953125 C 11.660156 -26.992188 11.332031 -26.191406 10.875 -25.546875 C 10.425781 -24.910156 9.78125 -24.59375 8.9375 -24.59375 C 8.550781 -24.59375 8.320312 -24.734375 8.25 -25.015625 C 8.1875 -25.304688 8.179688 -25.679688 8.234375 -26.140625 C 8.285156 -26.609375 8.363281 -27.132812 8.46875 -27.71875 C 8.582031 -28.3125 8.640625 -28.910156 8.640625 -29.515625 Z M 8.640625 -29.515625 "/></g></g></g></svg>